<mxfile host="Electron" modified="2024-05-14T18:59:44.822Z" agent="Mozilla/5.0 (Windows NT 10.0; Win64; x64) AppleWebKit/537.36 (KHTML, like Gecko) draw.io/24.4.0 Chrome/120.0.6099.109 Electron/28.1.0 Safari/537.36" etag="6dzpeygu7Mk3CDyPexND" version="24.4.0" type="device">
  <diagram id="C5RBs43oDa-KdzZeNtuy" name="Page-1">
    <mxGraphModel dx="3628" dy="675" grid="1" gridSize="10" guides="1" tooltips="1" connect="1" arrows="1" fold="1" page="1" pageScale="1" pageWidth="827" pageHeight="1169" math="0" shadow="0">
      <root>
        <mxCell id="WIyWlLk6GJQsqaUBKTNV-0" />
        <mxCell id="WIyWlLk6GJQsqaUBKTNV-1" parent="WIyWlLk6GJQsqaUBKTNV-0" />
        <mxCell id="zkfFHV4jXpPFQw0GAbJ--17" value="Ordem de ServiÃ§o" style="swimlane;fontStyle=0;align=center;verticalAlign=top;childLayout=stackLayout;horizontal=1;startSize=26;horizontalStack=0;resizeParent=1;resizeLast=0;collapsible=1;marginBottom=0;rounded=0;shadow=0;strokeWidth=1;fontSize=15;" parent="WIyWlLk6GJQsqaUBKTNV-1" vertex="1">
          <mxGeometry x="-320" y="80" width="486" height="680" as="geometry">
            <mxRectangle x="244" y="240" width="276" height="80" as="alternateBounds" />
          </mxGeometry>
        </mxCell>
        <mxCell id="zkfFHV4jXpPFQw0GAbJ--18" value="id_ordem_de_servico" style="text;align=left;verticalAlign=top;spacingLeft=4;spacingRight=4;overflow=hidden;rotatable=0;points=[[0,0.5],[1,0.5]];portConstraint=eastwest;fontSize=15;" parent="zkfFHV4jXpPFQw0GAbJ--17" vertex="1">
          <mxGeometry y="26" width="486" height="26" as="geometry" />
        </mxCell>
        <mxCell id="zkfFHV4jXpPFQw0GAbJ--19" value="data_de_abertura_os" style="text;align=left;verticalAlign=top;spacingLeft=4;spacingRight=4;overflow=hidden;rotatable=0;points=[[0,0.5],[1,0.5]];portConstraint=eastwest;rounded=0;shadow=0;html=0;fontSize=15;" parent="zkfFHV4jXpPFQw0GAbJ--17" vertex="1">
          <mxGeometry y="52" width="486" height="26" as="geometry" />
        </mxCell>
        <mxCell id="zkfFHV4jXpPFQw0GAbJ--20" value="data_garantia_servico" style="text;align=left;verticalAlign=top;spacingLeft=4;spacingRight=4;overflow=hidden;rotatable=0;points=[[0,0.5],[1,0.5]];portConstraint=eastwest;rounded=0;shadow=0;html=0;fontSize=15;" parent="zkfFHV4jXpPFQw0GAbJ--17" vertex="1">
          <mxGeometry y="78" width="486" height="26" as="geometry" />
        </mxCell>
        <mxCell id="zkfFHV4jXpPFQw0GAbJ--21" value="valor_mao_de_obra" style="text;align=left;verticalAlign=top;spacingLeft=4;spacingRight=4;overflow=hidden;rotatable=0;points=[[0,0.5],[1,0.5]];portConstraint=eastwest;rounded=0;shadow=0;html=0;fontSize=15;" parent="zkfFHV4jXpPFQw0GAbJ--17" vertex="1">
          <mxGeometry y="104" width="486" height="26" as="geometry" />
        </mxCell>
        <mxCell id="zkfFHV4jXpPFQw0GAbJ--22" value="valor_peca" style="text;align=left;verticalAlign=top;spacingLeft=4;spacingRight=4;overflow=hidden;rotatable=0;points=[[0,0.5],[1,0.5]];portConstraint=eastwest;rounded=0;shadow=0;html=0;fontSize=15;" parent="zkfFHV4jXpPFQw0GAbJ--17" vertex="1">
          <mxGeometry y="130" width="486" height="26" as="geometry" />
        </mxCell>
        <mxCell id="kcTmeoFG8CMYl5RWd2l8-1" value="valor_acessorio" style="text;align=left;verticalAlign=top;spacingLeft=4;spacingRight=4;overflow=hidden;rotatable=0;points=[[0,0.5],[1,0.5]];portConstraint=eastwest;rounded=0;shadow=0;html=0;fontSize=15;" parent="zkfFHV4jXpPFQw0GAbJ--17" vertex="1">
          <mxGeometry y="156" width="486" height="26" as="geometry" />
        </mxCell>
        <mxCell id="kcTmeoFG8CMYl5RWd2l8-2" value="valor_desconto" style="text;align=left;verticalAlign=top;spacingLeft=4;spacingRight=4;overflow=hidden;rotatable=0;points=[[0,0.5],[1,0.5]];portConstraint=eastwest;rounded=0;shadow=0;html=0;fontSize=15;" parent="zkfFHV4jXpPFQw0GAbJ--17" vertex="1">
          <mxGeometry y="182" width="486" height="26" as="geometry" />
        </mxCell>
        <mxCell id="kcTmeoFG8CMYl5RWd2l8-18" value="valor_total" style="text;align=left;verticalAlign=top;spacingLeft=4;spacingRight=4;overflow=hidden;rotatable=0;points=[[0,0.5],[1,0.5]];portConstraint=eastwest;rounded=0;shadow=0;html=0;fontSize=15;" parent="zkfFHV4jXpPFQw0GAbJ--17" vertex="1">
          <mxGeometry y="208" width="486" height="26" as="geometry" />
        </mxCell>
        <mxCell id="kcTmeoFG8CMYl5RWd2l8-19" value="descricao_do_problema" style="text;align=left;verticalAlign=top;spacingLeft=4;spacingRight=4;overflow=hidden;rotatable=0;points=[[0,0.5],[1,0.5]];portConstraint=eastwest;rounded=0;shadow=0;html=0;fontSize=15;" parent="zkfFHV4jXpPFQw0GAbJ--17" vertex="1">
          <mxGeometry y="234" width="486" height="26" as="geometry" />
        </mxCell>
        <mxCell id="kcTmeoFG8CMYl5RWd2l8-17" value="obs_os" style="text;align=left;verticalAlign=top;spacingLeft=4;spacingRight=4;overflow=hidden;rotatable=0;points=[[0,0.5],[1,0.5]];portConstraint=eastwest;rounded=0;shadow=0;html=0;fontSize=15;" parent="zkfFHV4jXpPFQw0GAbJ--17" vertex="1">
          <mxGeometry y="260" width="486" height="26" as="geometry" />
        </mxCell>
        <mxCell id="kcTmeoFG8CMYl5RWd2l8-24" value="valor_desconto" style="text;align=left;verticalAlign=top;spacingLeft=4;spacingRight=4;overflow=hidden;rotatable=0;points=[[0,0.5],[1,0.5]];portConstraint=eastwest;rounded=0;shadow=0;html=0;fontSize=15;" parent="zkfFHV4jXpPFQw0GAbJ--17" vertex="1">
          <mxGeometry y="286" width="486" height="26" as="geometry" />
        </mxCell>
        <mxCell id="kcTmeoFG8CMYl5RWd2l8-30" value="id_microondas_manut" style="text;align=left;verticalAlign=top;spacingLeft=4;spacingRight=4;overflow=hidden;rotatable=0;points=[[0,0.5],[1,0.5]];portConstraint=eastwest;rounded=0;shadow=0;html=0;fontSize=15;" parent="zkfFHV4jXpPFQw0GAbJ--17" vertex="1">
          <mxGeometry y="312" width="486" height="26" as="geometry" />
        </mxCell>
        <mxCell id="kcTmeoFG8CMYl5RWd2l8-25" value="id_forno_eletrico_manut" style="text;align=left;verticalAlign=top;spacingLeft=4;spacingRight=4;overflow=hidden;rotatable=0;points=[[0,0.5],[1,0.5]];portConstraint=eastwest;rounded=0;shadow=0;html=0;fontSize=15;" parent="zkfFHV4jXpPFQw0GAbJ--17" vertex="1">
          <mxGeometry y="338" width="486" height="26" as="geometry" />
        </mxCell>
        <mxCell id="kcTmeoFG8CMYl5RWd2l8-28" value="id_acessorios" style="text;align=left;verticalAlign=top;spacingLeft=4;spacingRight=4;overflow=hidden;rotatable=0;points=[[0,0.5],[1,0.5]];portConstraint=eastwest;rounded=0;shadow=0;html=0;fontSize=15;" parent="zkfFHV4jXpPFQw0GAbJ--17" vertex="1">
          <mxGeometry y="364" width="486" height="26" as="geometry" />
        </mxCell>
        <mxCell id="Xi1oOaFem3DwiqBoVBaP-24" value="id_microondas_venda" style="text;align=left;verticalAlign=top;spacingLeft=4;spacingRight=4;overflow=hidden;rotatable=0;points=[[0,0.5],[1,0.5]];portConstraint=eastwest;rounded=0;shadow=0;html=0;fontSize=15;" parent="zkfFHV4jXpPFQw0GAbJ--17" vertex="1">
          <mxGeometry y="390" width="486" height="26" as="geometry" />
        </mxCell>
        <mxCell id="Xi1oOaFem3DwiqBoVBaP-25" value="id_forno_eletrico_venda" style="text;align=left;verticalAlign=top;spacingLeft=4;spacingRight=4;overflow=hidden;rotatable=0;points=[[0,0.5],[1,0.5]];portConstraint=eastwest;rounded=0;shadow=0;html=0;fontSize=15;" parent="zkfFHV4jXpPFQw0GAbJ--17" vertex="1">
          <mxGeometry y="416" width="486" height="26" as="geometry" />
        </mxCell>
        <mxCell id="kcTmeoFG8CMYl5RWd2l8-31" value="id_pecas" style="text;align=left;verticalAlign=top;spacingLeft=4;spacingRight=4;overflow=hidden;rotatable=0;points=[[0,0.5],[1,0.5]];portConstraint=eastwest;rounded=0;shadow=0;html=0;fontSize=15;" parent="zkfFHV4jXpPFQw0GAbJ--17" vertex="1">
          <mxGeometry y="442" width="486" height="26" as="geometry" />
        </mxCell>
        <mxCell id="kcTmeoFG8CMYl5RWd2l8-20" value="id_cliente" style="text;align=left;verticalAlign=top;spacingLeft=4;spacingRight=4;overflow=hidden;rotatable=0;points=[[0,0.5],[1,0.5]];portConstraint=eastwest;rounded=0;shadow=0;html=0;fontSize=15;" parent="zkfFHV4jXpPFQw0GAbJ--17" vertex="1">
          <mxGeometry y="468" width="486" height="26" as="geometry" />
        </mxCell>
        <mxCell id="kcTmeoFG8CMYl5RWd2l8-21" value="id_tipo_servico" style="text;align=left;verticalAlign=top;spacingLeft=4;spacingRight=4;overflow=hidden;rotatable=0;points=[[0,0.5],[1,0.5]];portConstraint=eastwest;rounded=0;shadow=0;html=0;fontSize=15;" parent="zkfFHV4jXpPFQw0GAbJ--17" vertex="1">
          <mxGeometry y="494" width="486" height="24" as="geometry" />
        </mxCell>
        <mxCell id="kcTmeoFG8CMYl5RWd2l8-34" value="id_forma_de_pagamento" style="text;align=left;verticalAlign=top;spacingLeft=4;spacingRight=4;overflow=hidden;rotatable=0;points=[[0,0.5],[1,0.5]];portConstraint=eastwest;rounded=0;shadow=0;html=0;fontSize=15;" parent="zkfFHV4jXpPFQw0GAbJ--17" vertex="1">
          <mxGeometry y="518" width="486" height="26" as="geometry" />
        </mxCell>
        <mxCell id="kcTmeoFG8CMYl5RWd2l8-22" value="id_situacao_os" style="text;align=left;verticalAlign=top;spacingLeft=4;spacingRight=4;overflow=hidden;rotatable=0;points=[[0,0.5],[1,0.5]];portConstraint=eastwest;rounded=0;shadow=0;html=0;fontSize=15;" parent="zkfFHV4jXpPFQw0GAbJ--17" vertex="1">
          <mxGeometry y="544" width="486" height="26" as="geometry" />
        </mxCell>
        <mxCell id="kcTmeoFG8CMYl5RWd2l8-29" value="id_funcionario" style="text;align=left;verticalAlign=top;spacingLeft=4;spacingRight=4;overflow=hidden;rotatable=0;points=[[0,0.5],[1,0.5]];portConstraint=eastwest;rounded=0;shadow=0;html=0;fontSize=15;" parent="zkfFHV4jXpPFQw0GAbJ--17" vertex="1">
          <mxGeometry y="570" width="486" height="26" as="geometry" />
        </mxCell>
        <mxCell id="kcTmeoFG8CMYl5RWd2l8-26" value="id_filial" style="text;align=left;verticalAlign=top;spacingLeft=4;spacingRight=4;overflow=hidden;rotatable=0;points=[[0,0.5],[1,0.5]];portConstraint=eastwest;rounded=0;shadow=0;html=0;fontSize=15;" parent="zkfFHV4jXpPFQw0GAbJ--17" vertex="1">
          <mxGeometry y="596" width="486" height="26" as="geometry" />
        </mxCell>
        <mxCell id="Xi1oOaFem3DwiqBoVBaP-22" value="id_setor" style="text;align=left;verticalAlign=top;spacingLeft=4;spacingRight=4;overflow=hidden;rotatable=0;points=[[0,0.5],[1,0.5]];portConstraint=eastwest;rounded=0;shadow=0;html=0;fontSize=15;" parent="zkfFHV4jXpPFQw0GAbJ--17" vertex="1">
          <mxGeometry y="622" width="486" height="26" as="geometry" />
        </mxCell>
        <mxCell id="kcTmeoFG8CMYl5RWd2l8-32" value="id_mao_de_obra" style="text;align=left;verticalAlign=top;spacingLeft=4;spacingRight=4;overflow=hidden;rotatable=0;points=[[0,0.5],[1,0.5]];portConstraint=eastwest;rounded=0;shadow=0;html=0;fontSize=15;" parent="zkfFHV4jXpPFQw0GAbJ--17" vertex="1">
          <mxGeometry y="648" width="486" height="26" as="geometry" />
        </mxCell>
        <mxCell id="kcTmeoFG8CMYl5RWd2l8-37" value="AcessÃ³rios" style="swimlane;fontStyle=0;align=center;verticalAlign=top;childLayout=stackLayout;horizontal=1;startSize=26;horizontalStack=0;resizeParent=1;resizeLast=0;collapsible=1;marginBottom=0;rounded=0;shadow=0;strokeWidth=1;fontSize=15;" parent="WIyWlLk6GJQsqaUBKTNV-1" vertex="1">
          <mxGeometry x="-960" y="570" width="486" height="340" as="geometry">
            <mxRectangle x="244" y="240" width="276" height="80" as="alternateBounds" />
          </mxGeometry>
        </mxCell>
        <mxCell id="kcTmeoFG8CMYl5RWd2l8-38" value="id_acessorios" style="text;align=left;verticalAlign=top;spacingLeft=4;spacingRight=4;overflow=hidden;rotatable=0;points=[[0,0.5],[1,0.5]];portConstraint=eastwest;fontSize=15;" parent="kcTmeoFG8CMYl5RWd2l8-37" vertex="1">
          <mxGeometry y="26" width="486" height="26" as="geometry" />
        </mxCell>
        <mxCell id="kcTmeoFG8CMYl5RWd2l8-39" value="nome_acessorio" style="text;align=left;verticalAlign=top;spacingLeft=4;spacingRight=4;overflow=hidden;rotatable=0;points=[[0,0.5],[1,0.5]];portConstraint=eastwest;rounded=0;shadow=0;html=0;fontSize=15;" parent="kcTmeoFG8CMYl5RWd2l8-37" vertex="1">
          <mxGeometry y="52" width="486" height="26" as="geometry" />
        </mxCell>
        <mxCell id="kcTmeoFG8CMYl5RWd2l8-40" value="modelo_acessorio" style="text;align=left;verticalAlign=top;spacingLeft=4;spacingRight=4;overflow=hidden;rotatable=0;points=[[0,0.5],[1,0.5]];portConstraint=eastwest;rounded=0;shadow=0;html=0;fontSize=15;" parent="kcTmeoFG8CMYl5RWd2l8-37" vertex="1">
          <mxGeometry y="78" width="486" height="26" as="geometry" />
        </mxCell>
        <mxCell id="kcTmeoFG8CMYl5RWd2l8-41" value="qtd_em_estoque_acessorioÂ " style="text;align=left;verticalAlign=top;spacingLeft=4;spacingRight=4;overflow=hidden;rotatable=0;points=[[0,0.5],[1,0.5]];portConstraint=eastwest;rounded=0;shadow=0;html=0;fontSize=15;" parent="kcTmeoFG8CMYl5RWd2l8-37" vertex="1">
          <mxGeometry y="104" width="486" height="26" as="geometry" />
        </mxCell>
        <mxCell id="kcTmeoFG8CMYl5RWd2l8-42" value="qtd_min_estoque_acessorio" style="text;align=left;verticalAlign=top;spacingLeft=4;spacingRight=4;overflow=hidden;rotatable=0;points=[[0,0.5],[1,0.5]];portConstraint=eastwest;rounded=0;shadow=0;html=0;fontSize=15;" parent="kcTmeoFG8CMYl5RWd2l8-37" vertex="1">
          <mxGeometry y="130" width="486" height="26" as="geometry" />
        </mxCell>
        <mxCell id="kcTmeoFG8CMYl5RWd2l8-44" value="preco_venda_acessorio" style="text;align=left;verticalAlign=top;spacingLeft=4;spacingRight=4;overflow=hidden;rotatable=0;points=[[0,0.5],[1,0.5]];portConstraint=eastwest;rounded=0;shadow=0;html=0;fontSize=15;" parent="kcTmeoFG8CMYl5RWd2l8-37" vertex="1">
          <mxGeometry y="156" width="486" height="26" as="geometry" />
        </mxCell>
        <mxCell id="kcTmeoFG8CMYl5RWd2l8-45" value="preco_compra_acessorio" style="text;align=left;verticalAlign=top;spacingLeft=4;spacingRight=4;overflow=hidden;rotatable=0;points=[[0,0.5],[1,0.5]];portConstraint=eastwest;rounded=0;shadow=0;html=0;fontSize=15;" parent="kcTmeoFG8CMYl5RWd2l8-37" vertex="1">
          <mxGeometry y="182" width="486" height="26" as="geometry" />
        </mxCell>
        <mxCell id="kcTmeoFG8CMYl5RWd2l8-46" value="acessorio_tipo_unidade" style="text;align=left;verticalAlign=top;spacingLeft=4;spacingRight=4;overflow=hidden;rotatable=0;points=[[0,0.5],[1,0.5]];portConstraint=eastwest;rounded=0;shadow=0;html=0;fontSize=15;" parent="kcTmeoFG8CMYl5RWd2l8-37" vertex="1">
          <mxGeometry y="208" width="486" height="26" as="geometry" />
        </mxCell>
        <mxCell id="kcTmeoFG8CMYl5RWd2l8-52" value="id_ordem_de_servico" style="text;align=left;verticalAlign=top;spacingLeft=4;spacingRight=4;overflow=hidden;rotatable=0;points=[[0,0.5],[1,0.5]];portConstraint=eastwest;rounded=0;shadow=0;html=0;fontSize=15;" parent="kcTmeoFG8CMYl5RWd2l8-37" vertex="1">
          <mxGeometry y="234" width="486" height="26" as="geometry" />
        </mxCell>
        <mxCell id="kcTmeoFG8CMYl5RWd2l8-50" value="id_marcas" style="text;align=left;verticalAlign=top;spacingLeft=4;spacingRight=4;overflow=hidden;rotatable=0;points=[[0,0.5],[1,0.5]];portConstraint=eastwest;rounded=0;shadow=0;html=0;fontSize=15;" parent="kcTmeoFG8CMYl5RWd2l8-37" vertex="1">
          <mxGeometry y="260" width="486" height="26" as="geometry" />
        </mxCell>
        <mxCell id="Xi1oOaFem3DwiqBoVBaP-115" value="id_condicao" style="text;align=left;verticalAlign=top;spacingLeft=4;spacingRight=4;overflow=hidden;rotatable=0;points=[[0,0.5],[1,0.5]];portConstraint=eastwest;rounded=0;shadow=0;html=0;fontSize=15;" parent="kcTmeoFG8CMYl5RWd2l8-37" vertex="1">
          <mxGeometry y="286" width="486" height="26" as="geometry" />
        </mxCell>
        <mxCell id="kcTmeoFG8CMYl5RWd2l8-53" value="id_filialÂ  Â " style="text;align=left;verticalAlign=top;spacingLeft=4;spacingRight=4;overflow=hidden;rotatable=0;points=[[0,0.5],[1,0.5]];portConstraint=eastwest;rounded=0;shadow=0;html=0;fontSize=15;" parent="kcTmeoFG8CMYl5RWd2l8-37" vertex="1">
          <mxGeometry y="312" width="486" height="26" as="geometry" />
        </mxCell>
        <mxCell id="kcTmeoFG8CMYl5RWd2l8-77" value="Cliente" style="swimlane;fontStyle=0;align=center;verticalAlign=top;childLayout=stackLayout;horizontal=1;startSize=26;horizontalStack=0;resizeParent=1;resizeLast=0;collapsible=1;marginBottom=0;rounded=0;shadow=0;strokeWidth=1;fontSize=15;" parent="WIyWlLk6GJQsqaUBKTNV-1" vertex="1">
          <mxGeometry x="-960" y="1038" width="486" height="420" as="geometry">
            <mxRectangle x="244" y="240" width="276" height="80" as="alternateBounds" />
          </mxGeometry>
        </mxCell>
        <mxCell id="kcTmeoFG8CMYl5RWd2l8-78" value="id_cliente" style="text;align=left;verticalAlign=top;spacingLeft=4;spacingRight=4;overflow=hidden;rotatable=0;points=[[0,0.5],[1,0.5]];portConstraint=eastwest;fontSize=15;" parent="kcTmeoFG8CMYl5RWd2l8-77" vertex="1">
          <mxGeometry y="26" width="486" height="26" as="geometry" />
        </mxCell>
        <mxCell id="kcTmeoFG8CMYl5RWd2l8-79" value="nome_cliente" style="text;align=left;verticalAlign=top;spacingLeft=4;spacingRight=4;overflow=hidden;rotatable=0;points=[[0,0.5],[1,0.5]];portConstraint=eastwest;rounded=0;shadow=0;html=0;fontSize=15;" parent="kcTmeoFG8CMYl5RWd2l8-77" vertex="1">
          <mxGeometry y="52" width="486" height="26" as="geometry" />
        </mxCell>
        <mxCell id="kcTmeoFG8CMYl5RWd2l8-81" value="cpf_cliente" style="text;align=left;verticalAlign=top;spacingLeft=4;spacingRight=4;overflow=hidden;rotatable=0;points=[[0,0.5],[1,0.5]];portConstraint=eastwest;rounded=0;shadow=0;html=0;fontSize=15;" parent="kcTmeoFG8CMYl5RWd2l8-77" vertex="1">
          <mxGeometry y="78" width="486" height="26" as="geometry" />
        </mxCell>
        <mxCell id="kcTmeoFG8CMYl5RWd2l8-82" value="cnpj_cliente" style="text;align=left;verticalAlign=top;spacingLeft=4;spacingRight=4;overflow=hidden;rotatable=0;points=[[0,0.5],[1,0.5]];portConstraint=eastwest;rounded=0;shadow=0;html=0;fontSize=15;" parent="kcTmeoFG8CMYl5RWd2l8-77" vertex="1">
          <mxGeometry y="104" width="486" height="26" as="geometry" />
        </mxCell>
        <mxCell id="kcTmeoFG8CMYl5RWd2l8-83" value="telefone_cliente" style="text;align=left;verticalAlign=top;spacingLeft=4;spacingRight=4;overflow=hidden;rotatable=0;points=[[0,0.5],[1,0.5]];portConstraint=eastwest;rounded=0;shadow=0;html=0;fontSize=15;" parent="kcTmeoFG8CMYl5RWd2l8-77" vertex="1">
          <mxGeometry y="130" width="486" height="26" as="geometry" />
        </mxCell>
        <mxCell id="kcTmeoFG8CMYl5RWd2l8-84" value="data_de_nascimento_cliente" style="text;align=left;verticalAlign=top;spacingLeft=4;spacingRight=4;overflow=hidden;rotatable=0;points=[[0,0.5],[1,0.5]];portConstraint=eastwest;rounded=0;shadow=0;html=0;fontSize=15;" parent="kcTmeoFG8CMYl5RWd2l8-77" vertex="1">
          <mxGeometry y="156" width="486" height="26" as="geometry" />
        </mxCell>
        <mxCell id="kcTmeoFG8CMYl5RWd2l8-85" value="email_cliente" style="text;align=left;verticalAlign=top;spacingLeft=4;spacingRight=4;overflow=hidden;rotatable=0;points=[[0,0.5],[1,0.5]];portConstraint=eastwest;rounded=0;shadow=0;html=0;fontSize=15;" parent="kcTmeoFG8CMYl5RWd2l8-77" vertex="1">
          <mxGeometry y="182" width="486" height="26" as="geometry" />
        </mxCell>
        <mxCell id="kcTmeoFG8CMYl5RWd2l8-86" value="senha_cliente" style="text;align=left;verticalAlign=top;spacingLeft=4;spacingRight=4;overflow=hidden;rotatable=0;points=[[0,0.5],[1,0.5]];portConstraint=eastwest;rounded=0;shadow=0;html=0;fontSize=15;" parent="kcTmeoFG8CMYl5RWd2l8-77" vertex="1">
          <mxGeometry y="208" width="486" height="26" as="geometry" />
        </mxCell>
        <mxCell id="kcTmeoFG8CMYl5RWd2l8-88" value="id_microondas_manutÂ " style="text;align=left;verticalAlign=top;spacingLeft=4;spacingRight=4;overflow=hidden;rotatable=0;points=[[0,0.5],[1,0.5]];portConstraint=eastwest;rounded=0;shadow=0;html=0;fontSize=15;" parent="kcTmeoFG8CMYl5RWd2l8-77" vertex="1">
          <mxGeometry y="234" width="486" height="26" as="geometry" />
        </mxCell>
        <mxCell id="kcTmeoFG8CMYl5RWd2l8-95" value="id_forno_eletrico_manut" style="text;align=left;verticalAlign=top;spacingLeft=4;spacingRight=4;overflow=hidden;rotatable=0;points=[[0,0.5],[1,0.5]];portConstraint=eastwest;rounded=0;shadow=0;html=0;fontSize=15;" parent="kcTmeoFG8CMYl5RWd2l8-77" vertex="1">
          <mxGeometry y="260" width="486" height="26" as="geometry" />
        </mxCell>
        <mxCell id="kcTmeoFG8CMYl5RWd2l8-94" value="id_forno_eletrico_venda" style="text;align=left;verticalAlign=top;spacingLeft=4;spacingRight=4;overflow=hidden;rotatable=0;points=[[0,0.5],[1,0.5]];portConstraint=eastwest;rounded=0;shadow=0;html=0;fontSize=15;" parent="kcTmeoFG8CMYl5RWd2l8-77" vertex="1">
          <mxGeometry y="286" width="486" height="26" as="geometry" />
        </mxCell>
        <mxCell id="kcTmeoFG8CMYl5RWd2l8-90" value="id_microondas_venda" style="text;align=left;verticalAlign=top;spacingLeft=4;spacingRight=4;overflow=hidden;rotatable=0;points=[[0,0.5],[1,0.5]];portConstraint=eastwest;rounded=0;shadow=0;html=0;fontSize=15;" parent="kcTmeoFG8CMYl5RWd2l8-77" vertex="1">
          <mxGeometry y="312" width="486" height="26" as="geometry" />
        </mxCell>
        <mxCell id="kcTmeoFG8CMYl5RWd2l8-98" value="id_ordem_de_servico" style="text;align=left;verticalAlign=top;spacingLeft=4;spacingRight=4;overflow=hidden;rotatable=0;points=[[0,0.5],[1,0.5]];portConstraint=eastwest;rounded=0;shadow=0;html=0;fontSize=15;" parent="kcTmeoFG8CMYl5RWd2l8-77" vertex="1">
          <mxGeometry y="338" width="486" height="26" as="geometry" />
        </mxCell>
        <mxCell id="kcTmeoFG8CMYl5RWd2l8-96" value="id_filialÂ " style="text;align=left;verticalAlign=top;spacingLeft=4;spacingRight=4;overflow=hidden;rotatable=0;points=[[0,0.5],[1,0.5]];portConstraint=eastwest;rounded=0;shadow=0;html=0;fontSize=15;" parent="kcTmeoFG8CMYl5RWd2l8-77" vertex="1">
          <mxGeometry y="364" width="486" height="26" as="geometry" />
        </mxCell>
        <mxCell id="kcTmeoFG8CMYl5RWd2l8-87" value="id_enderecoÂ " style="text;align=left;verticalAlign=top;spacingLeft=4;spacingRight=4;overflow=hidden;rotatable=0;points=[[0,0.5],[1,0.5]];portConstraint=eastwest;rounded=0;shadow=0;html=0;fontSize=15;" parent="kcTmeoFG8CMYl5RWd2l8-77" vertex="1">
          <mxGeometry y="390" width="486" height="26" as="geometry" />
        </mxCell>
        <mxCell id="kcTmeoFG8CMYl5RWd2l8-101" value="EndereÃ§o" style="swimlane;fontStyle=0;align=center;verticalAlign=top;childLayout=stackLayout;horizontal=1;startSize=26;horizontalStack=0;resizeParent=1;resizeLast=0;collapsible=1;marginBottom=0;rounded=0;shadow=0;strokeWidth=1;fontSize=15;" parent="WIyWlLk6GJQsqaUBKTNV-1" vertex="1">
          <mxGeometry x="-1490" y="1510" width="486" height="338" as="geometry">
            <mxRectangle x="244" y="240" width="276" height="80" as="alternateBounds" />
          </mxGeometry>
        </mxCell>
        <mxCell id="kcTmeoFG8CMYl5RWd2l8-102" value="id_endereco" style="text;align=left;verticalAlign=top;spacingLeft=4;spacingRight=4;overflow=hidden;rotatable=0;points=[[0,0.5],[1,0.5]];portConstraint=eastwest;fontSize=15;" parent="kcTmeoFG8CMYl5RWd2l8-101" vertex="1">
          <mxGeometry y="26" width="486" height="26" as="geometry" />
        </mxCell>
        <mxCell id="kcTmeoFG8CMYl5RWd2l8-103" value="endereco" style="text;align=left;verticalAlign=top;spacingLeft=4;spacingRight=4;overflow=hidden;rotatable=0;points=[[0,0.5],[1,0.5]];portConstraint=eastwest;rounded=0;shadow=0;html=0;fontSize=15;" parent="kcTmeoFG8CMYl5RWd2l8-101" vertex="1">
          <mxGeometry y="52" width="486" height="26" as="geometry" />
        </mxCell>
        <mxCell id="kcTmeoFG8CMYl5RWd2l8-104" value="complemento&#xa;" style="text;align=left;verticalAlign=top;spacingLeft=4;spacingRight=4;overflow=hidden;rotatable=0;points=[[0,0.5],[1,0.5]];portConstraint=eastwest;rounded=0;shadow=0;html=0;fontSize=15;" parent="kcTmeoFG8CMYl5RWd2l8-101" vertex="1">
          <mxGeometry y="78" width="486" height="26" as="geometry" />
        </mxCell>
        <mxCell id="Xi1oOaFem3DwiqBoVBaP-156" value="numero" style="text;align=left;verticalAlign=top;spacingLeft=4;spacingRight=4;overflow=hidden;rotatable=0;points=[[0,0.5],[1,0.5]];portConstraint=eastwest;rounded=0;shadow=0;html=0;fontSize=15;" parent="kcTmeoFG8CMYl5RWd2l8-101" vertex="1">
          <mxGeometry y="104" width="486" height="26" as="geometry" />
        </mxCell>
        <mxCell id="kcTmeoFG8CMYl5RWd2l8-105" value="bairro" style="text;align=left;verticalAlign=top;spacingLeft=4;spacingRight=4;overflow=hidden;rotatable=0;points=[[0,0.5],[1,0.5]];portConstraint=eastwest;rounded=0;shadow=0;html=0;fontSize=15;" parent="kcTmeoFG8CMYl5RWd2l8-101" vertex="1">
          <mxGeometry y="130" width="486" height="26" as="geometry" />
        </mxCell>
        <mxCell id="kcTmeoFG8CMYl5RWd2l8-106" value="cidade" style="text;align=left;verticalAlign=top;spacingLeft=4;spacingRight=4;overflow=hidden;rotatable=0;points=[[0,0.5],[1,0.5]];portConstraint=eastwest;rounded=0;shadow=0;html=0;fontSize=15;" parent="kcTmeoFG8CMYl5RWd2l8-101" vertex="1">
          <mxGeometry y="156" width="486" height="26" as="geometry" />
        </mxCell>
        <mxCell id="kcTmeoFG8CMYl5RWd2l8-107" value="estado" style="text;align=left;verticalAlign=top;spacingLeft=4;spacingRight=4;overflow=hidden;rotatable=0;points=[[0,0.5],[1,0.5]];portConstraint=eastwest;rounded=0;shadow=0;html=0;fontSize=15;" parent="kcTmeoFG8CMYl5RWd2l8-101" vertex="1">
          <mxGeometry y="182" width="486" height="26" as="geometry" />
        </mxCell>
        <mxCell id="kcTmeoFG8CMYl5RWd2l8-108" value="cep" style="text;align=left;verticalAlign=top;spacingLeft=4;spacingRight=4;overflow=hidden;rotatable=0;points=[[0,0.5],[1,0.5]];portConstraint=eastwest;rounded=0;shadow=0;html=0;fontSize=15;" parent="kcTmeoFG8CMYl5RWd2l8-101" vertex="1">
          <mxGeometry y="208" width="486" height="26" as="geometry" />
        </mxCell>
        <mxCell id="kcTmeoFG8CMYl5RWd2l8-109" value="observacao" style="text;align=left;verticalAlign=top;spacingLeft=4;spacingRight=4;overflow=hidden;rotatable=0;points=[[0,0.5],[1,0.5]];portConstraint=eastwest;rounded=0;shadow=0;html=0;fontSize=15;" parent="kcTmeoFG8CMYl5RWd2l8-101" vertex="1">
          <mxGeometry y="234" width="486" height="26" as="geometry" />
        </mxCell>
        <mxCell id="kcTmeoFG8CMYl5RWd2l8-113" value="id_cliente" style="text;align=left;verticalAlign=top;spacingLeft=4;spacingRight=4;overflow=hidden;rotatable=0;points=[[0,0.5],[1,0.5]];portConstraint=eastwest;rounded=0;shadow=0;html=0;fontSize=15;" parent="kcTmeoFG8CMYl5RWd2l8-101" vertex="1">
          <mxGeometry y="260" width="486" height="26" as="geometry" />
        </mxCell>
        <mxCell id="kcTmeoFG8CMYl5RWd2l8-112" value="id_filial" style="text;align=left;verticalAlign=top;spacingLeft=4;spacingRight=4;overflow=hidden;rotatable=0;points=[[0,0.5],[1,0.5]];portConstraint=eastwest;rounded=0;shadow=0;html=0;fontSize=15;" parent="kcTmeoFG8CMYl5RWd2l8-101" vertex="1">
          <mxGeometry y="286" width="486" height="26" as="geometry" />
        </mxCell>
        <mxCell id="kcTmeoFG8CMYl5RWd2l8-114" value="id_funcionario" style="text;align=left;verticalAlign=top;spacingLeft=4;spacingRight=4;overflow=hidden;rotatable=0;points=[[0,0.5],[1,0.5]];portConstraint=eastwest;rounded=0;shadow=0;html=0;fontSize=15;" parent="kcTmeoFG8CMYl5RWd2l8-101" vertex="1">
          <mxGeometry y="312" width="486" height="26" as="geometry" />
        </mxCell>
        <mxCell id="kcTmeoFG8CMYl5RWd2l8-117" value="Filial" style="swimlane;fontStyle=0;align=center;verticalAlign=top;childLayout=stackLayout;horizontal=1;startSize=26;horizontalStack=0;resizeParent=1;resizeLast=0;collapsible=1;marginBottom=0;rounded=0;shadow=0;strokeWidth=1;fontSize=15;" parent="WIyWlLk6GJQsqaUBKTNV-1" vertex="1">
          <mxGeometry x="-320" y="1042" width="486" height="416" as="geometry">
            <mxRectangle x="-320" y="1042" width="276" height="80" as="alternateBounds" />
          </mxGeometry>
        </mxCell>
        <mxCell id="kcTmeoFG8CMYl5RWd2l8-118" value="id_filial" style="text;align=left;verticalAlign=top;spacingLeft=4;spacingRight=4;overflow=hidden;rotatable=0;points=[[0,0.5],[1,0.5]];portConstraint=eastwest;fontSize=15;" parent="kcTmeoFG8CMYl5RWd2l8-117" vertex="1">
          <mxGeometry y="26" width="486" height="26" as="geometry" />
        </mxCell>
        <mxCell id="kcTmeoFG8CMYl5RWd2l8-119" value="nome_filial" style="text;align=left;verticalAlign=top;spacingLeft=4;spacingRight=4;overflow=hidden;rotatable=0;points=[[0,0.5],[1,0.5]];portConstraint=eastwest;rounded=0;shadow=0;html=0;fontSize=15;" parent="kcTmeoFG8CMYl5RWd2l8-117" vertex="1">
          <mxGeometry y="52" width="486" height="26" as="geometry" />
        </mxCell>
        <mxCell id="kcTmeoFG8CMYl5RWd2l8-120" value="cnpj_filial" style="text;align=left;verticalAlign=top;spacingLeft=4;spacingRight=4;overflow=hidden;rotatable=0;points=[[0,0.5],[1,0.5]];portConstraint=eastwest;rounded=0;shadow=0;html=0;fontSize=15;" parent="kcTmeoFG8CMYl5RWd2l8-117" vertex="1">
          <mxGeometry y="78" width="486" height="26" as="geometry" />
        </mxCell>
        <mxCell id="kcTmeoFG8CMYl5RWd2l8-121" value="telefone_filial" style="text;align=left;verticalAlign=top;spacingLeft=4;spacingRight=4;overflow=hidden;rotatable=0;points=[[0,0.5],[1,0.5]];portConstraint=eastwest;rounded=0;shadow=0;html=0;fontSize=15;" parent="kcTmeoFG8CMYl5RWd2l8-117" vertex="1">
          <mxGeometry y="104" width="486" height="26" as="geometry" />
        </mxCell>
        <mxCell id="kcTmeoFG8CMYl5RWd2l8-133" value="id_ordem_de_servico" style="text;align=left;verticalAlign=top;spacingLeft=4;spacingRight=4;overflow=hidden;rotatable=0;points=[[0,0.5],[1,0.5]];portConstraint=eastwest;rounded=0;shadow=0;html=0;fontSize=15;" parent="kcTmeoFG8CMYl5RWd2l8-117" vertex="1">
          <mxGeometry y="130" width="486" height="26" as="geometry" />
        </mxCell>
        <mxCell id="kcTmeoFG8CMYl5RWd2l8-132" value="id_pecas" style="text;align=left;verticalAlign=top;spacingLeft=4;spacingRight=4;overflow=hidden;rotatable=0;points=[[0,0.5],[1,0.5]];portConstraint=eastwest;rounded=0;shadow=0;html=0;fontSize=15;" parent="kcTmeoFG8CMYl5RWd2l8-117" vertex="1">
          <mxGeometry y="156" width="486" height="26" as="geometry" />
        </mxCell>
        <mxCell id="kcTmeoFG8CMYl5RWd2l8-136" value="id_acessorios" style="text;align=left;verticalAlign=top;spacingLeft=4;spacingRight=4;overflow=hidden;rotatable=0;points=[[0,0.5],[1,0.5]];portConstraint=eastwest;rounded=0;shadow=0;html=0;fontSize=15;" parent="kcTmeoFG8CMYl5RWd2l8-117" vertex="1">
          <mxGeometry y="182" width="486" height="26" as="geometry" />
        </mxCell>
        <mxCell id="kcTmeoFG8CMYl5RWd2l8-129" value="id_forno_eletrico_manut" style="text;align=left;verticalAlign=top;spacingLeft=4;spacingRight=4;overflow=hidden;rotatable=0;points=[[0,0.5],[1,0.5]];portConstraint=eastwest;rounded=0;shadow=0;html=0;fontSize=15;" parent="kcTmeoFG8CMYl5RWd2l8-117" vertex="1">
          <mxGeometry y="208" width="486" height="26" as="geometry" />
        </mxCell>
        <mxCell id="kcTmeoFG8CMYl5RWd2l8-128" value="id_microondas_manut" style="text;align=left;verticalAlign=top;spacingLeft=4;spacingRight=4;overflow=hidden;rotatable=0;points=[[0,0.5],[1,0.5]];portConstraint=eastwest;rounded=0;shadow=0;html=0;fontSize=15;" parent="kcTmeoFG8CMYl5RWd2l8-117" vertex="1">
          <mxGeometry y="234" width="486" height="26" as="geometry" />
        </mxCell>
        <mxCell id="kcTmeoFG8CMYl5RWd2l8-130" value="id_microondas_venda" style="text;align=left;verticalAlign=top;spacingLeft=4;spacingRight=4;overflow=hidden;rotatable=0;points=[[0,0.5],[1,0.5]];portConstraint=eastwest;rounded=0;shadow=0;html=0;fontSize=15;" parent="kcTmeoFG8CMYl5RWd2l8-117" vertex="1">
          <mxGeometry y="260" width="486" height="26" as="geometry" />
        </mxCell>
        <mxCell id="kcTmeoFG8CMYl5RWd2l8-131" value="id_forno_eletrico_venda" style="text;align=left;verticalAlign=top;spacingLeft=4;spacingRight=4;overflow=hidden;rotatable=0;points=[[0,0.5],[1,0.5]];portConstraint=eastwest;rounded=0;shadow=0;html=0;fontSize=15;" parent="kcTmeoFG8CMYl5RWd2l8-117" vertex="1">
          <mxGeometry y="286" width="486" height="26" as="geometry" />
        </mxCell>
        <mxCell id="kcTmeoFG8CMYl5RWd2l8-134" value="id_funcionario" style="text;align=left;verticalAlign=top;spacingLeft=4;spacingRight=4;overflow=hidden;rotatable=0;points=[[0,0.5],[1,0.5]];portConstraint=eastwest;rounded=0;shadow=0;html=0;fontSize=15;" parent="kcTmeoFG8CMYl5RWd2l8-117" vertex="1">
          <mxGeometry y="312" width="486" height="26" as="geometry" />
        </mxCell>
        <mxCell id="Xi1oOaFem3DwiqBoVBaP-7" value="id_setor" style="text;align=left;verticalAlign=top;spacingLeft=4;spacingRight=4;overflow=hidden;rotatable=0;points=[[0,0.5],[1,0.5]];portConstraint=eastwest;rounded=0;shadow=0;html=0;fontSize=15;" parent="kcTmeoFG8CMYl5RWd2l8-117" vertex="1">
          <mxGeometry y="338" width="486" height="26" as="geometry" />
        </mxCell>
        <mxCell id="kcTmeoFG8CMYl5RWd2l8-135" value="id_cliente" style="text;align=left;verticalAlign=top;spacingLeft=4;spacingRight=4;overflow=hidden;rotatable=0;points=[[0,0.5],[1,0.5]];portConstraint=eastwest;rounded=0;shadow=0;html=0;fontSize=15;" parent="kcTmeoFG8CMYl5RWd2l8-117" vertex="1">
          <mxGeometry y="364" width="486" height="26" as="geometry" />
        </mxCell>
        <mxCell id="kcTmeoFG8CMYl5RWd2l8-122" value="id_endereco" style="text;align=left;verticalAlign=top;spacingLeft=4;spacingRight=4;overflow=hidden;rotatable=0;points=[[0,0.5],[1,0.5]];portConstraint=eastwest;rounded=0;shadow=0;html=0;fontSize=15;" parent="kcTmeoFG8CMYl5RWd2l8-117" vertex="1">
          <mxGeometry y="390" width="486" height="26" as="geometry" />
        </mxCell>
        <mxCell id="kcTmeoFG8CMYl5RWd2l8-144" value="Forno ElÃ©trico em manutenÃ§Ã£o" style="swimlane;fontStyle=0;align=center;verticalAlign=top;childLayout=stackLayout;horizontal=1;startSize=26;horizontalStack=0;resizeParent=1;resizeLast=0;collapsible=1;marginBottom=0;rounded=0;shadow=0;strokeWidth=1;fontSize=15;" parent="WIyWlLk6GJQsqaUBKTNV-1" vertex="1">
          <mxGeometry x="-1590" y="210" width="486" height="234" as="geometry">
            <mxRectangle x="244" y="240" width="276" height="80" as="alternateBounds" />
          </mxGeometry>
        </mxCell>
        <mxCell id="kcTmeoFG8CMYl5RWd2l8-145" value="id_forno_eletrico_manut" style="text;align=left;verticalAlign=top;spacingLeft=4;spacingRight=4;overflow=hidden;rotatable=0;points=[[0,0.5],[1,0.5]];portConstraint=eastwest;fontSize=15;" parent="kcTmeoFG8CMYl5RWd2l8-144" vertex="1">
          <mxGeometry y="26" width="486" height="26" as="geometry" />
        </mxCell>
        <mxCell id="kcTmeoFG8CMYl5RWd2l8-146" value="modelo_forno_eletrico" style="text;align=left;verticalAlign=top;spacingLeft=4;spacingRight=4;overflow=hidden;rotatable=0;points=[[0,0.5],[1,0.5]];portConstraint=eastwest;rounded=0;shadow=0;html=0;fontSize=15;" parent="kcTmeoFG8CMYl5RWd2l8-144" vertex="1">
          <mxGeometry y="52" width="486" height="26" as="geometry" />
        </mxCell>
        <mxCell id="kcTmeoFG8CMYl5RWd2l8-147" value="num_identificacao_forno_eletrico" style="text;align=left;verticalAlign=top;spacingLeft=4;spacingRight=4;overflow=hidden;rotatable=0;points=[[0,0.5],[1,0.5]];portConstraint=eastwest;rounded=0;shadow=0;html=0;fontSize=15;" parent="kcTmeoFG8CMYl5RWd2l8-144" vertex="1">
          <mxGeometry y="78" width="486" height="26" as="geometry" />
        </mxCell>
        <mxCell id="kcTmeoFG8CMYl5RWd2l8-148" value="cor_forno_eletrico" style="text;align=left;verticalAlign=top;spacingLeft=4;spacingRight=4;overflow=hidden;rotatable=0;points=[[0,0.5],[1,0.5]];portConstraint=eastwest;rounded=0;shadow=0;html=0;fontSize=15;" parent="kcTmeoFG8CMYl5RWd2l8-144" vertex="1">
          <mxGeometry y="104" width="486" height="26" as="geometry" />
        </mxCell>
        <mxCell id="kcTmeoFG8CMYl5RWd2l8-154" value="id_marcas" style="text;align=left;verticalAlign=top;spacingLeft=4;spacingRight=4;overflow=hidden;rotatable=0;points=[[0,0.5],[1,0.5]];portConstraint=eastwest;rounded=0;shadow=0;html=0;fontSize=15;" parent="kcTmeoFG8CMYl5RWd2l8-144" vertex="1">
          <mxGeometry y="130" width="486" height="26" as="geometry" />
        </mxCell>
        <mxCell id="kcTmeoFG8CMYl5RWd2l8-157" value="id_cliente" style="text;align=left;verticalAlign=top;spacingLeft=4;spacingRight=4;overflow=hidden;rotatable=0;points=[[0,0.5],[1,0.5]];portConstraint=eastwest;rounded=0;shadow=0;html=0;fontSize=15;" parent="kcTmeoFG8CMYl5RWd2l8-144" vertex="1">
          <mxGeometry y="156" width="486" height="26" as="geometry" />
        </mxCell>
        <mxCell id="kcTmeoFG8CMYl5RWd2l8-156" value="id_ordem_de_servico&#xa;" style="text;align=left;verticalAlign=top;spacingLeft=4;spacingRight=4;overflow=hidden;rotatable=0;points=[[0,0.5],[1,0.5]];portConstraint=eastwest;rounded=0;shadow=0;html=0;fontSize=15;" parent="kcTmeoFG8CMYl5RWd2l8-144" vertex="1">
          <mxGeometry y="182" width="486" height="26" as="geometry" />
        </mxCell>
        <mxCell id="Xi1oOaFem3DwiqBoVBaP-207" value="id_filial" style="text;align=left;verticalAlign=top;spacingLeft=4;spacingRight=4;overflow=hidden;rotatable=0;points=[[0,0.5],[1,0.5]];portConstraint=eastwest;rounded=0;shadow=0;html=0;fontSize=15;" parent="kcTmeoFG8CMYl5RWd2l8-144" vertex="1">
          <mxGeometry y="208" width="486" height="26" as="geometry" />
        </mxCell>
        <mxCell id="kcTmeoFG8CMYl5RWd2l8-158" value="Marcas" style="swimlane;fontStyle=0;align=center;verticalAlign=top;childLayout=stackLayout;horizontal=1;startSize=26;horizontalStack=0;resizeParent=1;resizeLast=0;collapsible=1;marginBottom=0;rounded=0;shadow=0;strokeWidth=1;fontSize=15;" parent="WIyWlLk6GJQsqaUBKTNV-1" vertex="1">
          <mxGeometry x="-2310" y="210" width="486" height="240" as="geometry">
            <mxRectangle x="244" y="240" width="276" height="80" as="alternateBounds" />
          </mxGeometry>
        </mxCell>
        <mxCell id="kcTmeoFG8CMYl5RWd2l8-159" value="id_marcas" style="text;align=left;verticalAlign=top;spacingLeft=4;spacingRight=4;overflow=hidden;rotatable=0;points=[[0,0.5],[1,0.5]];portConstraint=eastwest;fontSize=15;" parent="kcTmeoFG8CMYl5RWd2l8-158" vertex="1">
          <mxGeometry y="26" width="486" height="26" as="geometry" />
        </mxCell>
        <mxCell id="kcTmeoFG8CMYl5RWd2l8-160" value="nome_marca" style="text;align=left;verticalAlign=top;spacingLeft=4;spacingRight=4;overflow=hidden;rotatable=0;points=[[0,0.5],[1,0.5]];portConstraint=eastwest;rounded=0;shadow=0;html=0;fontSize=15;" parent="kcTmeoFG8CMYl5RWd2l8-158" vertex="1">
          <mxGeometry y="52" width="486" height="26" as="geometry" />
        </mxCell>
        <mxCell id="kcTmeoFG8CMYl5RWd2l8-162" value="id_microondas_manut" style="text;align=left;verticalAlign=top;spacingLeft=4;spacingRight=4;overflow=hidden;rotatable=0;points=[[0,0.5],[1,0.5]];portConstraint=eastwest;rounded=0;shadow=0;html=0;fontSize=15;" parent="kcTmeoFG8CMYl5RWd2l8-158" vertex="1">
          <mxGeometry y="78" width="486" height="26" as="geometry" />
        </mxCell>
        <mxCell id="kcTmeoFG8CMYl5RWd2l8-166" value="id_forno_eletrico_manut" style="text;align=left;verticalAlign=top;spacingLeft=4;spacingRight=4;overflow=hidden;rotatable=0;points=[[0,0.5],[1,0.5]];portConstraint=eastwest;rounded=0;shadow=0;html=0;fontSize=15;" parent="kcTmeoFG8CMYl5RWd2l8-158" vertex="1">
          <mxGeometry y="104" width="486" height="26" as="geometry" />
        </mxCell>
        <mxCell id="kcTmeoFG8CMYl5RWd2l8-169" value="id_acessorios" style="text;align=left;verticalAlign=top;spacingLeft=4;spacingRight=4;overflow=hidden;rotatable=0;points=[[0,0.5],[1,0.5]];portConstraint=eastwest;rounded=0;shadow=0;html=0;fontSize=15;" parent="kcTmeoFG8CMYl5RWd2l8-158" vertex="1">
          <mxGeometry y="130" width="486" height="26" as="geometry" />
        </mxCell>
        <mxCell id="kcTmeoFG8CMYl5RWd2l8-170" value="id_pecas" style="text;align=left;verticalAlign=top;spacingLeft=4;spacingRight=4;overflow=hidden;rotatable=0;points=[[0,0.5],[1,0.5]];portConstraint=eastwest;rounded=0;shadow=0;html=0;fontSize=15;" parent="kcTmeoFG8CMYl5RWd2l8-158" vertex="1">
          <mxGeometry y="156" width="486" height="26" as="geometry" />
        </mxCell>
        <mxCell id="kcTmeoFG8CMYl5RWd2l8-167" value="id_microondas_venda" style="text;align=left;verticalAlign=top;spacingLeft=4;spacingRight=4;overflow=hidden;rotatable=0;points=[[0,0.5],[1,0.5]];portConstraint=eastwest;rounded=0;shadow=0;html=0;fontSize=15;" parent="kcTmeoFG8CMYl5RWd2l8-158" vertex="1">
          <mxGeometry y="182" width="486" height="26" as="geometry" />
        </mxCell>
        <mxCell id="kcTmeoFG8CMYl5RWd2l8-168" value="id_forno_eletrico_venda" style="text;align=left;verticalAlign=top;spacingLeft=4;spacingRight=4;overflow=hidden;rotatable=0;points=[[0,0.5],[1,0.5]];portConstraint=eastwest;rounded=0;shadow=0;html=0;fontSize=15;" parent="kcTmeoFG8CMYl5RWd2l8-158" vertex="1">
          <mxGeometry y="208" width="486" height="26" as="geometry" />
        </mxCell>
        <mxCell id="kcTmeoFG8CMYl5RWd2l8-173" value="Microondas em manutenÃ§Ã£o" style="swimlane;fontStyle=0;align=center;verticalAlign=top;childLayout=stackLayout;horizontal=1;startSize=26;horizontalStack=0;resizeParent=1;resizeLast=0;collapsible=1;marginBottom=0;rounded=0;shadow=0;strokeWidth=1;fontSize=15;" parent="WIyWlLk6GJQsqaUBKTNV-1" vertex="1">
          <mxGeometry x="-960" y="210" width="486" height="234" as="geometry">
            <mxRectangle x="244" y="240" width="276" height="80" as="alternateBounds" />
          </mxGeometry>
        </mxCell>
        <mxCell id="kcTmeoFG8CMYl5RWd2l8-174" value="id_microondas_manut" style="text;align=left;verticalAlign=top;spacingLeft=4;spacingRight=4;overflow=hidden;rotatable=0;points=[[0,0.5],[1,0.5]];portConstraint=eastwest;fontSize=15;" parent="kcTmeoFG8CMYl5RWd2l8-173" vertex="1">
          <mxGeometry y="26" width="486" height="26" as="geometry" />
        </mxCell>
        <mxCell id="kcTmeoFG8CMYl5RWd2l8-175" value="modelo_microondas" style="text;align=left;verticalAlign=top;spacingLeft=4;spacingRight=4;overflow=hidden;rotatable=0;points=[[0,0.5],[1,0.5]];portConstraint=eastwest;rounded=0;shadow=0;html=0;fontSize=15;" parent="kcTmeoFG8CMYl5RWd2l8-173" vertex="1">
          <mxGeometry y="52" width="486" height="26" as="geometry" />
        </mxCell>
        <mxCell id="kcTmeoFG8CMYl5RWd2l8-176" value="num_identificacao_microondas" style="text;align=left;verticalAlign=top;spacingLeft=4;spacingRight=4;overflow=hidden;rotatable=0;points=[[0,0.5],[1,0.5]];portConstraint=eastwest;rounded=0;shadow=0;html=0;fontSize=15;" parent="kcTmeoFG8CMYl5RWd2l8-173" vertex="1">
          <mxGeometry y="78" width="486" height="26" as="geometry" />
        </mxCell>
        <mxCell id="kcTmeoFG8CMYl5RWd2l8-177" value="cor_microondas" style="text;align=left;verticalAlign=top;spacingLeft=4;spacingRight=4;overflow=hidden;rotatable=0;points=[[0,0.5],[1,0.5]];portConstraint=eastwest;rounded=0;shadow=0;html=0;fontSize=15;" parent="kcTmeoFG8CMYl5RWd2l8-173" vertex="1">
          <mxGeometry y="104" width="486" height="26" as="geometry" />
        </mxCell>
        <mxCell id="kcTmeoFG8CMYl5RWd2l8-179" value="id_ordem_de_servico&#xa;" style="text;align=left;verticalAlign=top;spacingLeft=4;spacingRight=4;overflow=hidden;rotatable=0;points=[[0,0.5],[1,0.5]];portConstraint=eastwest;rounded=0;shadow=0;html=0;fontSize=15;" parent="kcTmeoFG8CMYl5RWd2l8-173" vertex="1">
          <mxGeometry y="130" width="486" height="26" as="geometry" />
        </mxCell>
        <mxCell id="kcTmeoFG8CMYl5RWd2l8-178" value="id_marcas" style="text;align=left;verticalAlign=top;spacingLeft=4;spacingRight=4;overflow=hidden;rotatable=0;points=[[0,0.5],[1,0.5]];portConstraint=eastwest;rounded=0;shadow=0;html=0;fontSize=15;" parent="kcTmeoFG8CMYl5RWd2l8-173" vertex="1">
          <mxGeometry y="156" width="486" height="26" as="geometry" />
        </mxCell>
        <mxCell id="kcTmeoFG8CMYl5RWd2l8-180" value="id_cliente" style="text;align=left;verticalAlign=top;spacingLeft=4;spacingRight=4;overflow=hidden;rotatable=0;points=[[0,0.5],[1,0.5]];portConstraint=eastwest;rounded=0;shadow=0;html=0;fontSize=15;" parent="kcTmeoFG8CMYl5RWd2l8-173" vertex="1">
          <mxGeometry y="182" width="486" height="26" as="geometry" />
        </mxCell>
        <mxCell id="Xi1oOaFem3DwiqBoVBaP-197" value="id_filial" style="text;align=left;verticalAlign=top;spacingLeft=4;spacingRight=4;overflow=hidden;rotatable=0;points=[[0,0.5],[1,0.5]];portConstraint=eastwest;rounded=0;shadow=0;html=0;fontSize=15;" parent="kcTmeoFG8CMYl5RWd2l8-173" vertex="1">
          <mxGeometry y="208" width="486" height="26" as="geometry" />
        </mxCell>
        <mxCell id="kcTmeoFG8CMYl5RWd2l8-198" value="FuncionÃ¡rio" style="swimlane;fontStyle=0;align=center;verticalAlign=top;childLayout=stackLayout;horizontal=1;startSize=26;horizontalStack=0;resizeParent=1;resizeLast=0;collapsible=1;marginBottom=0;rounded=0;shadow=0;strokeWidth=1;fontSize=15;" parent="WIyWlLk6GJQsqaUBKTNV-1" vertex="1">
          <mxGeometry x="380" y="940" width="486" height="500" as="geometry">
            <mxRectangle x="244" y="240" width="276" height="80" as="alternateBounds" />
          </mxGeometry>
        </mxCell>
        <mxCell id="kcTmeoFG8CMYl5RWd2l8-199" value="id_funcionario" style="text;align=left;verticalAlign=top;spacingLeft=4;spacingRight=4;overflow=hidden;rotatable=0;points=[[0,0.5],[1,0.5]];portConstraint=eastwest;fontSize=15;" parent="kcTmeoFG8CMYl5RWd2l8-198" vertex="1">
          <mxGeometry y="26" width="486" height="26" as="geometry" />
        </mxCell>
        <mxCell id="kcTmeoFG8CMYl5RWd2l8-200" value="nome_funcionario" style="text;align=left;verticalAlign=top;spacingLeft=4;spacingRight=4;overflow=hidden;rotatable=0;points=[[0,0.5],[1,0.5]];portConstraint=eastwest;rounded=0;shadow=0;html=0;fontSize=15;" parent="kcTmeoFG8CMYl5RWd2l8-198" vertex="1">
          <mxGeometry y="52" width="486" height="26" as="geometry" />
        </mxCell>
        <mxCell id="kcTmeoFG8CMYl5RWd2l8-201" value="cpf_funcionario" style="text;align=left;verticalAlign=top;spacingLeft=4;spacingRight=4;overflow=hidden;rotatable=0;points=[[0,0.5],[1,0.5]];portConstraint=eastwest;rounded=0;shadow=0;html=0;fontSize=15;" parent="kcTmeoFG8CMYl5RWd2l8-198" vertex="1">
          <mxGeometry y="78" width="486" height="26" as="geometry" />
        </mxCell>
        <mxCell id="kcTmeoFG8CMYl5RWd2l8-202" value="cnpj_funcionario" style="text;align=left;verticalAlign=top;spacingLeft=4;spacingRight=4;overflow=hidden;rotatable=0;points=[[0,0.5],[1,0.5]];portConstraint=eastwest;rounded=0;shadow=0;html=0;fontSize=15;" parent="kcTmeoFG8CMYl5RWd2l8-198" vertex="1">
          <mxGeometry y="104" width="486" height="26" as="geometry" />
        </mxCell>
        <mxCell id="kcTmeoFG8CMYl5RWd2l8-205" value="data_de_nascimento_funcionario" style="text;align=left;verticalAlign=top;spacingLeft=4;spacingRight=4;overflow=hidden;rotatable=0;points=[[0,0.5],[1,0.5]];portConstraint=eastwest;rounded=0;shadow=0;html=0;fontSize=15;" parent="kcTmeoFG8CMYl5RWd2l8-198" vertex="1">
          <mxGeometry y="130" width="486" height="26" as="geometry" />
        </mxCell>
        <mxCell id="kcTmeoFG8CMYl5RWd2l8-203" value="data_admissao" style="text;align=left;verticalAlign=top;spacingLeft=4;spacingRight=4;overflow=hidden;rotatable=0;points=[[0,0.5],[1,0.5]];portConstraint=eastwest;rounded=0;shadow=0;html=0;fontSize=15;" parent="kcTmeoFG8CMYl5RWd2l8-198" vertex="1">
          <mxGeometry y="156" width="486" height="26" as="geometry" />
        </mxCell>
        <mxCell id="Xi1oOaFem3DwiqBoVBaP-1" value="data_demissao" style="text;align=left;verticalAlign=top;spacingLeft=4;spacingRight=4;overflow=hidden;rotatable=0;points=[[0,0.5],[1,0.5]];portConstraint=eastwest;rounded=0;shadow=0;html=0;fontSize=15;" parent="kcTmeoFG8CMYl5RWd2l8-198" vertex="1">
          <mxGeometry y="182" width="486" height="26" as="geometry" />
        </mxCell>
        <mxCell id="Xi1oOaFem3DwiqBoVBaP-2" value="funcao_funcionario" style="text;align=left;verticalAlign=top;spacingLeft=4;spacingRight=4;overflow=hidden;rotatable=0;points=[[0,0.5],[1,0.5]];portConstraint=eastwest;rounded=0;shadow=0;html=0;fontSize=15;" parent="kcTmeoFG8CMYl5RWd2l8-198" vertex="1">
          <mxGeometry y="208" width="486" height="26" as="geometry" />
        </mxCell>
        <mxCell id="kcTmeoFG8CMYl5RWd2l8-206" value="email_funcionario" style="text;align=left;verticalAlign=top;spacingLeft=4;spacingRight=4;overflow=hidden;rotatable=0;points=[[0,0.5],[1,0.5]];portConstraint=eastwest;rounded=0;shadow=0;html=0;fontSize=15;" parent="kcTmeoFG8CMYl5RWd2l8-198" vertex="1">
          <mxGeometry y="234" width="486" height="26" as="geometry" />
        </mxCell>
        <mxCell id="kcTmeoFG8CMYl5RWd2l8-207" value="senha_funcionario" style="text;align=left;verticalAlign=top;spacingLeft=4;spacingRight=4;overflow=hidden;rotatable=0;points=[[0,0.5],[1,0.5]];portConstraint=eastwest;rounded=0;shadow=0;html=0;fontSize=15;" parent="kcTmeoFG8CMYl5RWd2l8-198" vertex="1">
          <mxGeometry y="260" width="486" height="26" as="geometry" />
        </mxCell>
        <mxCell id="kcTmeoFG8CMYl5RWd2l8-204" value="telefone_funcionario" style="text;align=left;verticalAlign=top;spacingLeft=4;spacingRight=4;overflow=hidden;rotatable=0;points=[[0,0.5],[1,0.5]];portConstraint=eastwest;rounded=0;shadow=0;html=0;fontSize=15;" parent="kcTmeoFG8CMYl5RWd2l8-198" vertex="1">
          <mxGeometry y="286" width="486" height="26" as="geometry" />
        </mxCell>
        <mxCell id="kcTmeoFG8CMYl5RWd2l8-211" value="id_ordem_de_servico" style="text;align=left;verticalAlign=top;spacingLeft=4;spacingRight=4;overflow=hidden;rotatable=0;points=[[0,0.5],[1,0.5]];portConstraint=eastwest;rounded=0;shadow=0;html=0;fontSize=15;" parent="kcTmeoFG8CMYl5RWd2l8-198" vertex="1">
          <mxGeometry y="312" width="486" height="26" as="geometry" />
        </mxCell>
        <mxCell id="Xi1oOaFem3DwiqBoVBaP-174" value="id_situacao_os" style="text;align=left;verticalAlign=top;spacingLeft=4;spacingRight=4;overflow=hidden;rotatable=0;points=[[0,0.5],[1,0.5]];portConstraint=eastwest;rounded=0;shadow=0;html=0;fontSize=15;" parent="kcTmeoFG8CMYl5RWd2l8-198" vertex="1">
          <mxGeometry y="338" width="486" height="26" as="geometry" />
        </mxCell>
        <mxCell id="Xi1oOaFem3DwiqBoVBaP-87" value="id_situacao_funcionario" style="text;align=left;verticalAlign=top;spacingLeft=4;spacingRight=4;overflow=hidden;rotatable=0;points=[[0,0.5],[1,0.5]];portConstraint=eastwest;rounded=0;shadow=0;html=0;fontSize=15;" parent="kcTmeoFG8CMYl5RWd2l8-198" vertex="1">
          <mxGeometry y="364" width="486" height="26" as="geometry" />
        </mxCell>
        <mxCell id="kcTmeoFG8CMYl5RWd2l8-209" value="id_filial" style="text;align=left;verticalAlign=top;spacingLeft=4;spacingRight=4;overflow=hidden;rotatable=0;points=[[0,0.5],[1,0.5]];portConstraint=eastwest;rounded=0;shadow=0;html=0;fontSize=15;" parent="kcTmeoFG8CMYl5RWd2l8-198" vertex="1">
          <mxGeometry y="390" width="486" height="26" as="geometry" />
        </mxCell>
        <mxCell id="Xi1oOaFem3DwiqBoVBaP-98" value="id_mao_de_obra" style="text;align=left;verticalAlign=top;spacingLeft=4;spacingRight=4;overflow=hidden;rotatable=0;points=[[0,0.5],[1,0.5]];portConstraint=eastwest;rounded=0;shadow=0;html=0;fontSize=15;" parent="kcTmeoFG8CMYl5RWd2l8-198" vertex="1">
          <mxGeometry y="416" width="486" height="26" as="geometry" />
        </mxCell>
        <mxCell id="kcTmeoFG8CMYl5RWd2l8-208" value="id_setor" style="text;align=left;verticalAlign=top;spacingLeft=4;spacingRight=4;overflow=hidden;rotatable=0;points=[[0,0.5],[1,0.5]];portConstraint=eastwest;rounded=0;shadow=0;html=0;fontSize=15;" parent="kcTmeoFG8CMYl5RWd2l8-198" vertex="1">
          <mxGeometry y="442" width="486" height="26" as="geometry" />
        </mxCell>
        <mxCell id="kcTmeoFG8CMYl5RWd2l8-210" value="id_endereco" style="text;align=left;verticalAlign=top;spacingLeft=4;spacingRight=4;overflow=hidden;rotatable=0;points=[[0,0.5],[1,0.5]];portConstraint=eastwest;rounded=0;shadow=0;html=0;fontSize=15;" parent="kcTmeoFG8CMYl5RWd2l8-198" vertex="1">
          <mxGeometry y="468" width="486" height="26" as="geometry" />
        </mxCell>
        <mxCell id="Xi1oOaFem3DwiqBoVBaP-8" value="Setor" style="swimlane;fontStyle=0;align=center;verticalAlign=top;childLayout=stackLayout;horizontal=1;startSize=26;horizontalStack=0;resizeParent=1;resizeLast=0;collapsible=1;marginBottom=0;rounded=0;shadow=0;strokeWidth=1;fontSize=15;" parent="WIyWlLk6GJQsqaUBKTNV-1" vertex="1">
          <mxGeometry x="-890" y="1508" width="486" height="182" as="geometry">
            <mxRectangle x="244" y="240" width="276" height="80" as="alternateBounds" />
          </mxGeometry>
        </mxCell>
        <mxCell id="Xi1oOaFem3DwiqBoVBaP-9" value="id_setor" style="text;align=left;verticalAlign=top;spacingLeft=4;spacingRight=4;overflow=hidden;rotatable=0;points=[[0,0.5],[1,0.5]];portConstraint=eastwest;fontSize=15;" parent="Xi1oOaFem3DwiqBoVBaP-8" vertex="1">
          <mxGeometry y="26" width="486" height="26" as="geometry" />
        </mxCell>
        <mxCell id="Xi1oOaFem3DwiqBoVBaP-10" value="nome_setor" style="text;align=left;verticalAlign=top;spacingLeft=4;spacingRight=4;overflow=hidden;rotatable=0;points=[[0,0.5],[1,0.5]];portConstraint=eastwest;rounded=0;shadow=0;html=0;fontSize=15;" parent="Xi1oOaFem3DwiqBoVBaP-8" vertex="1">
          <mxGeometry y="52" width="486" height="26" as="geometry" />
        </mxCell>
        <mxCell id="Xi1oOaFem3DwiqBoVBaP-18" value="id_filial" style="text;align=left;verticalAlign=top;spacingLeft=4;spacingRight=4;overflow=hidden;rotatable=0;points=[[0,0.5],[1,0.5]];portConstraint=eastwest;rounded=0;shadow=0;html=0;fontSize=15;" parent="Xi1oOaFem3DwiqBoVBaP-8" vertex="1">
          <mxGeometry y="78" width="486" height="26" as="geometry" />
        </mxCell>
        <mxCell id="Xi1oOaFem3DwiqBoVBaP-17" value="id_ordem_de_servico" style="text;align=left;verticalAlign=top;spacingLeft=4;spacingRight=4;overflow=hidden;rotatable=0;points=[[0,0.5],[1,0.5]];portConstraint=eastwest;rounded=0;shadow=0;html=0;fontSize=15;" parent="Xi1oOaFem3DwiqBoVBaP-8" vertex="1">
          <mxGeometry y="104" width="486" height="26" as="geometry" />
        </mxCell>
        <mxCell id="Xi1oOaFem3DwiqBoVBaP-167" value="id_mao_de_obra" style="text;align=left;verticalAlign=top;spacingLeft=4;spacingRight=4;overflow=hidden;rotatable=0;points=[[0,0.5],[1,0.5]];portConstraint=eastwest;rounded=0;shadow=0;html=0;fontSize=15;" parent="Xi1oOaFem3DwiqBoVBaP-8" vertex="1">
          <mxGeometry y="130" width="486" height="26" as="geometry" />
        </mxCell>
        <mxCell id="Xi1oOaFem3DwiqBoVBaP-19" value="id_funcionario" style="text;align=left;verticalAlign=top;spacingLeft=4;spacingRight=4;overflow=hidden;rotatable=0;points=[[0,0.5],[1,0.5]];portConstraint=eastwest;rounded=0;shadow=0;html=0;fontSize=15;" parent="Xi1oOaFem3DwiqBoVBaP-8" vertex="1">
          <mxGeometry y="156" width="486" height="26" as="geometry" />
        </mxCell>
        <mxCell id="Xi1oOaFem3DwiqBoVBaP-34" value="Microondas a Venda" style="swimlane;fontStyle=0;align=center;verticalAlign=top;childLayout=stackLayout;horizontal=1;startSize=26;horizontalStack=0;resizeParent=1;resizeLast=0;collapsible=1;marginBottom=0;rounded=0;shadow=0;strokeWidth=1;fontSize=15;" parent="WIyWlLk6GJQsqaUBKTNV-1" vertex="1">
          <mxGeometry x="-2199" y="1038" width="486" height="312" as="geometry">
            <mxRectangle x="244" y="240" width="276" height="80" as="alternateBounds" />
          </mxGeometry>
        </mxCell>
        <mxCell id="Xi1oOaFem3DwiqBoVBaP-35" value="id_microondas_venda" style="text;align=left;verticalAlign=top;spacingLeft=4;spacingRight=4;overflow=hidden;rotatable=0;points=[[0,0.5],[1,0.5]];portConstraint=eastwest;fontSize=15;" parent="Xi1oOaFem3DwiqBoVBaP-34" vertex="1">
          <mxGeometry y="26" width="486" height="26" as="geometry" />
        </mxCell>
        <mxCell id="Xi1oOaFem3DwiqBoVBaP-36" value="modelo_microondas_venda" style="text;align=left;verticalAlign=top;spacingLeft=4;spacingRight=4;overflow=hidden;rotatable=0;points=[[0,0.5],[1,0.5]];portConstraint=eastwest;rounded=0;shadow=0;html=0;fontSize=15;" parent="Xi1oOaFem3DwiqBoVBaP-34" vertex="1">
          <mxGeometry y="52" width="486" height="26" as="geometry" />
        </mxCell>
        <mxCell id="Xi1oOaFem3DwiqBoVBaP-37" value="num_identificacao_microondas_venda" style="text;align=left;verticalAlign=top;spacingLeft=4;spacingRight=4;overflow=hidden;rotatable=0;points=[[0,0.5],[1,0.5]];portConstraint=eastwest;rounded=0;shadow=0;html=0;fontSize=15;" parent="Xi1oOaFem3DwiqBoVBaP-34" vertex="1">
          <mxGeometry y="78" width="486" height="26" as="geometry" />
        </mxCell>
        <mxCell id="Xi1oOaFem3DwiqBoVBaP-38" value="cor_microondas_venda" style="text;align=left;verticalAlign=top;spacingLeft=4;spacingRight=4;overflow=hidden;rotatable=0;points=[[0,0.5],[1,0.5]];portConstraint=eastwest;rounded=0;shadow=0;html=0;fontSize=15;" parent="Xi1oOaFem3DwiqBoVBaP-34" vertex="1">
          <mxGeometry y="104" width="486" height="26" as="geometry" />
        </mxCell>
        <mxCell id="Xi1oOaFem3DwiqBoVBaP-42" value="valor_microondas" style="text;align=left;verticalAlign=top;spacingLeft=4;spacingRight=4;overflow=hidden;rotatable=0;points=[[0,0.5],[1,0.5]];portConstraint=eastwest;rounded=0;shadow=0;html=0;fontSize=15;" parent="Xi1oOaFem3DwiqBoVBaP-34" vertex="1">
          <mxGeometry y="130" width="486" height="26" as="geometry" />
        </mxCell>
        <mxCell id="Xi1oOaFem3DwiqBoVBaP-40" value="id_ordem_de_servico" style="text;align=left;verticalAlign=top;spacingLeft=4;spacingRight=4;overflow=hidden;rotatable=0;points=[[0,0.5],[1,0.5]];portConstraint=eastwest;rounded=0;shadow=0;html=0;fontSize=15;" parent="Xi1oOaFem3DwiqBoVBaP-34" vertex="1">
          <mxGeometry y="156" width="486" height="26" as="geometry" />
        </mxCell>
        <mxCell id="Xi1oOaFem3DwiqBoVBaP-39" value="id_marcas" style="text;align=left;verticalAlign=top;spacingLeft=4;spacingRight=4;overflow=hidden;rotatable=0;points=[[0,0.5],[1,0.5]];portConstraint=eastwest;rounded=0;shadow=0;html=0;fontSize=15;" parent="Xi1oOaFem3DwiqBoVBaP-34" vertex="1">
          <mxGeometry y="182" width="486" height="26" as="geometry" />
        </mxCell>
        <mxCell id="Xi1oOaFem3DwiqBoVBaP-117" value="id_condicao" style="text;align=left;verticalAlign=top;spacingLeft=4;spacingRight=4;overflow=hidden;rotatable=0;points=[[0,0.5],[1,0.5]];portConstraint=eastwest;rounded=0;shadow=0;html=0;fontSize=15;" parent="Xi1oOaFem3DwiqBoVBaP-34" vertex="1">
          <mxGeometry y="208" width="486" height="26" as="geometry" />
        </mxCell>
        <mxCell id="Xi1oOaFem3DwiqBoVBaP-100" value="id_filial" style="text;align=left;verticalAlign=top;spacingLeft=4;spacingRight=4;overflow=hidden;rotatable=0;points=[[0,0.5],[1,0.5]];portConstraint=eastwest;rounded=0;shadow=0;html=0;fontSize=15;" parent="Xi1oOaFem3DwiqBoVBaP-34" vertex="1">
          <mxGeometry y="234" width="486" height="26" as="geometry" />
        </mxCell>
        <mxCell id="Xi1oOaFem3DwiqBoVBaP-41" value="id_clienteÂ  Â " style="text;align=left;verticalAlign=top;spacingLeft=4;spacingRight=4;overflow=hidden;rotatable=0;points=[[0,0.5],[1,0.5]];portConstraint=eastwest;rounded=0;shadow=0;html=0;fontSize=15;" parent="Xi1oOaFem3DwiqBoVBaP-34" vertex="1">
          <mxGeometry y="260" width="486" height="26" as="geometry" />
        </mxCell>
        <mxCell id="Xi1oOaFem3DwiqBoVBaP-44" value="Forno elÃ©trico a venda" style="swimlane;fontStyle=0;align=center;verticalAlign=top;childLayout=stackLayout;horizontal=1;startSize=26;horizontalStack=0;resizeParent=1;resizeLast=0;collapsible=1;marginBottom=0;rounded=0;shadow=0;strokeWidth=1;fontSize=15;" parent="WIyWlLk6GJQsqaUBKTNV-1" vertex="1">
          <mxGeometry x="-1590" y="1038" width="486" height="292" as="geometry">
            <mxRectangle x="244" y="240" width="276" height="80" as="alternateBounds" />
          </mxGeometry>
        </mxCell>
        <mxCell id="Xi1oOaFem3DwiqBoVBaP-45" value="id_forno_eletrico_venda" style="text;align=left;verticalAlign=top;spacingLeft=4;spacingRight=4;overflow=hidden;rotatable=0;points=[[0,0.5],[1,0.5]];portConstraint=eastwest;fontSize=15;" parent="Xi1oOaFem3DwiqBoVBaP-44" vertex="1">
          <mxGeometry y="26" width="486" height="26" as="geometry" />
        </mxCell>
        <mxCell id="Xi1oOaFem3DwiqBoVBaP-46" value="modelo_forno_eletrico_venda" style="text;align=left;verticalAlign=top;spacingLeft=4;spacingRight=4;overflow=hidden;rotatable=0;points=[[0,0.5],[1,0.5]];portConstraint=eastwest;rounded=0;shadow=0;html=0;fontSize=15;" parent="Xi1oOaFem3DwiqBoVBaP-44" vertex="1">
          <mxGeometry y="52" width="486" height="26" as="geometry" />
        </mxCell>
        <mxCell id="Xi1oOaFem3DwiqBoVBaP-47" value="num_identificacao_forno_eletrico_venda" style="text;align=left;verticalAlign=top;spacingLeft=4;spacingRight=4;overflow=hidden;rotatable=0;points=[[0,0.5],[1,0.5]];portConstraint=eastwest;rounded=0;shadow=0;html=0;fontSize=15;" parent="Xi1oOaFem3DwiqBoVBaP-44" vertex="1">
          <mxGeometry y="78" width="486" height="26" as="geometry" />
        </mxCell>
        <mxCell id="Xi1oOaFem3DwiqBoVBaP-48" value="cor_forno_eletrico_venda" style="text;align=left;verticalAlign=top;spacingLeft=4;spacingRight=4;overflow=hidden;rotatable=0;points=[[0,0.5],[1,0.5]];portConstraint=eastwest;rounded=0;shadow=0;html=0;fontSize=15;" parent="Xi1oOaFem3DwiqBoVBaP-44" vertex="1">
          <mxGeometry y="104" width="486" height="26" as="geometry" />
        </mxCell>
        <mxCell id="Xi1oOaFem3DwiqBoVBaP-49" value="valor_forno_eletrico" style="text;align=left;verticalAlign=top;spacingLeft=4;spacingRight=4;overflow=hidden;rotatable=0;points=[[0,0.5],[1,0.5]];portConstraint=eastwest;rounded=0;shadow=0;html=0;fontSize=15;" parent="Xi1oOaFem3DwiqBoVBaP-44" vertex="1">
          <mxGeometry y="130" width="486" height="26" as="geometry" />
        </mxCell>
        <mxCell id="Xi1oOaFem3DwiqBoVBaP-80" value="id_ordem_de_servico" style="text;align=left;verticalAlign=top;spacingLeft=4;spacingRight=4;overflow=hidden;rotatable=0;points=[[0,0.5],[1,0.5]];portConstraint=eastwest;rounded=0;shadow=0;html=0;fontSize=15;" parent="Xi1oOaFem3DwiqBoVBaP-44" vertex="1">
          <mxGeometry y="156" width="486" height="26" as="geometry" />
        </mxCell>
        <mxCell id="Xi1oOaFem3DwiqBoVBaP-52" value="id_marcas" style="text;align=left;verticalAlign=top;spacingLeft=4;spacingRight=4;overflow=hidden;rotatable=0;points=[[0,0.5],[1,0.5]];portConstraint=eastwest;rounded=0;shadow=0;html=0;fontSize=15;" parent="Xi1oOaFem3DwiqBoVBaP-44" vertex="1">
          <mxGeometry y="182" width="486" height="26" as="geometry" />
        </mxCell>
        <mxCell id="Xi1oOaFem3DwiqBoVBaP-116" value="id_condicao" style="text;align=left;verticalAlign=top;spacingLeft=4;spacingRight=4;overflow=hidden;rotatable=0;points=[[0,0.5],[1,0.5]];portConstraint=eastwest;rounded=0;shadow=0;html=0;fontSize=15;" parent="Xi1oOaFem3DwiqBoVBaP-44" vertex="1">
          <mxGeometry y="208" width="486" height="26" as="geometry" />
        </mxCell>
        <mxCell id="Xi1oOaFem3DwiqBoVBaP-53" value="id_filial" style="text;align=left;verticalAlign=top;spacingLeft=4;spacingRight=4;overflow=hidden;rotatable=0;points=[[0,0.5],[1,0.5]];portConstraint=eastwest;rounded=0;shadow=0;html=0;fontSize=15;" parent="Xi1oOaFem3DwiqBoVBaP-44" vertex="1">
          <mxGeometry y="234" width="486" height="26" as="geometry" />
        </mxCell>
        <mxCell id="Xi1oOaFem3DwiqBoVBaP-51" value="id_cliente" style="text;align=left;verticalAlign=top;spacingLeft=4;spacingRight=4;overflow=hidden;rotatable=0;points=[[0,0.5],[1,0.5]];portConstraint=eastwest;rounded=0;shadow=0;html=0;fontSize=15;" parent="Xi1oOaFem3DwiqBoVBaP-44" vertex="1">
          <mxGeometry y="260" width="486" height="26" as="geometry" />
        </mxCell>
        <mxCell id="Xi1oOaFem3DwiqBoVBaP-68" value="Forma de pagamento" style="swimlane;fontStyle=0;align=center;verticalAlign=top;childLayout=stackLayout;horizontal=1;startSize=26;horizontalStack=0;resizeParent=1;resizeLast=0;collapsible=1;marginBottom=0;rounded=0;shadow=0;strokeWidth=1;fontSize=15;" parent="WIyWlLk6GJQsqaUBKTNV-1" vertex="1">
          <mxGeometry x="940" y="940" width="486" height="130" as="geometry">
            <mxRectangle x="244" y="240" width="276" height="80" as="alternateBounds" />
          </mxGeometry>
        </mxCell>
        <mxCell id="Xi1oOaFem3DwiqBoVBaP-69" value="id_forma_de_pagamento" style="text;align=left;verticalAlign=top;spacingLeft=4;spacingRight=4;overflow=hidden;rotatable=0;points=[[0,0.5],[1,0.5]];portConstraint=eastwest;fontSize=15;" parent="Xi1oOaFem3DwiqBoVBaP-68" vertex="1">
          <mxGeometry y="26" width="486" height="26" as="geometry" />
        </mxCell>
        <mxCell id="Xi1oOaFem3DwiqBoVBaP-70" value="forma_de_pagamento" style="text;align=left;verticalAlign=top;spacingLeft=4;spacingRight=4;overflow=hidden;rotatable=0;points=[[0,0.5],[1,0.5]];portConstraint=eastwest;rounded=0;shadow=0;html=0;fontSize=15;" parent="Xi1oOaFem3DwiqBoVBaP-68" vertex="1">
          <mxGeometry y="52" width="486" height="26" as="geometry" />
        </mxCell>
        <mxCell id="Xi1oOaFem3DwiqBoVBaP-72" value="id_plano_de_pagamento" style="text;align=left;verticalAlign=top;spacingLeft=4;spacingRight=4;overflow=hidden;rotatable=0;points=[[0,0.5],[1,0.5]];portConstraint=eastwest;rounded=0;shadow=0;html=0;fontSize=15;" parent="Xi1oOaFem3DwiqBoVBaP-68" vertex="1">
          <mxGeometry y="78" width="486" height="26" as="geometry" />
        </mxCell>
        <mxCell id="Xi1oOaFem3DwiqBoVBaP-73" value="id_ordem_de_servico" style="text;align=left;verticalAlign=top;spacingLeft=4;spacingRight=4;overflow=hidden;rotatable=0;points=[[0,0.5],[1,0.5]];portConstraint=eastwest;rounded=0;shadow=0;html=0;fontSize=15;" parent="Xi1oOaFem3DwiqBoVBaP-68" vertex="1">
          <mxGeometry y="104" width="486" height="26" as="geometry" />
        </mxCell>
        <mxCell id="Xi1oOaFem3DwiqBoVBaP-75" value="Plano de pagamento" style="swimlane;fontStyle=0;align=center;verticalAlign=top;childLayout=stackLayout;horizontal=1;startSize=26;horizontalStack=0;resizeParent=1;resizeLast=0;collapsible=1;marginBottom=0;rounded=0;shadow=0;strokeWidth=1;fontSize=15;" parent="WIyWlLk6GJQsqaUBKTNV-1" vertex="1">
          <mxGeometry x="1480" y="940" width="486" height="110" as="geometry">
            <mxRectangle x="244" y="240" width="276" height="80" as="alternateBounds" />
          </mxGeometry>
        </mxCell>
        <mxCell id="Xi1oOaFem3DwiqBoVBaP-76" value="id_plano_de_pagamento" style="text;align=left;verticalAlign=top;spacingLeft=4;spacingRight=4;overflow=hidden;rotatable=0;points=[[0,0.5],[1,0.5]];portConstraint=eastwest;fontSize=15;" parent="Xi1oOaFem3DwiqBoVBaP-75" vertex="1">
          <mxGeometry y="26" width="486" height="26" as="geometry" />
        </mxCell>
        <mxCell id="Xi1oOaFem3DwiqBoVBaP-77" value="plano_de_pagamento" style="text;align=left;verticalAlign=top;spacingLeft=4;spacingRight=4;overflow=hidden;rotatable=0;points=[[0,0.5],[1,0.5]];portConstraint=eastwest;rounded=0;shadow=0;html=0;fontSize=15;" parent="Xi1oOaFem3DwiqBoVBaP-75" vertex="1">
          <mxGeometry y="52" width="486" height="26" as="geometry" />
        </mxCell>
        <mxCell id="Xi1oOaFem3DwiqBoVBaP-78" value="id_forma_de_pagamento" style="text;align=left;verticalAlign=top;spacingLeft=4;spacingRight=4;overflow=hidden;rotatable=0;points=[[0,0.5],[1,0.5]];portConstraint=eastwest;rounded=0;shadow=0;html=0;fontSize=15;" parent="Xi1oOaFem3DwiqBoVBaP-75" vertex="1">
          <mxGeometry y="78" width="486" height="26" as="geometry" />
        </mxCell>
        <mxCell id="Xi1oOaFem3DwiqBoVBaP-82" value="SituaÃ§Ã£o do funcionÃ¡rio" style="swimlane;fontStyle=0;align=center;verticalAlign=top;childLayout=stackLayout;horizontal=1;startSize=26;horizontalStack=0;resizeParent=1;resizeLast=0;collapsible=1;marginBottom=0;rounded=0;shadow=0;strokeWidth=1;fontSize=15;" parent="WIyWlLk6GJQsqaUBKTNV-1" vertex="1">
          <mxGeometry x="380" y="1470" width="486" height="110" as="geometry">
            <mxRectangle x="244" y="240" width="276" height="80" as="alternateBounds" />
          </mxGeometry>
        </mxCell>
        <mxCell id="Xi1oOaFem3DwiqBoVBaP-83" value="id_situacao_funcionario" style="text;align=left;verticalAlign=top;spacingLeft=4;spacingRight=4;overflow=hidden;rotatable=0;points=[[0,0.5],[1,0.5]];portConstraint=eastwest;fontSize=15;" parent="Xi1oOaFem3DwiqBoVBaP-82" vertex="1">
          <mxGeometry y="26" width="486" height="26" as="geometry" />
        </mxCell>
        <mxCell id="Xi1oOaFem3DwiqBoVBaP-84" value="situacao_funcionario" style="text;align=left;verticalAlign=top;spacingLeft=4;spacingRight=4;overflow=hidden;rotatable=0;points=[[0,0.5],[1,0.5]];portConstraint=eastwest;rounded=0;shadow=0;html=0;fontSize=15;" parent="Xi1oOaFem3DwiqBoVBaP-82" vertex="1">
          <mxGeometry y="52" width="486" height="26" as="geometry" />
        </mxCell>
        <mxCell id="Xi1oOaFem3DwiqBoVBaP-86" value="id_funcionario" style="text;align=left;verticalAlign=top;spacingLeft=4;spacingRight=4;overflow=hidden;rotatable=0;points=[[0,0.5],[1,0.5]];portConstraint=eastwest;rounded=0;shadow=0;html=0;fontSize=15;" parent="Xi1oOaFem3DwiqBoVBaP-82" vertex="1">
          <mxGeometry y="78" width="486" height="26" as="geometry" />
        </mxCell>
        <mxCell id="Xi1oOaFem3DwiqBoVBaP-88" value="MÃ£o de obra" style="swimlane;fontStyle=0;align=center;verticalAlign=top;childLayout=stackLayout;horizontal=1;startSize=26;horizontalStack=0;resizeParent=1;resizeLast=0;collapsible=1;marginBottom=0;rounded=0;shadow=0;strokeWidth=1;fontSize=15;" parent="WIyWlLk6GJQsqaUBKTNV-1" vertex="1">
          <mxGeometry x="-250" y="1508" width="486" height="156" as="geometry">
            <mxRectangle x="244" y="240" width="276" height="80" as="alternateBounds" />
          </mxGeometry>
        </mxCell>
        <mxCell id="Xi1oOaFem3DwiqBoVBaP-89" value="id_mao_de_obra" style="text;align=left;verticalAlign=top;spacingLeft=4;spacingRight=4;overflow=hidden;rotatable=0;points=[[0,0.5],[1,0.5]];portConstraint=eastwest;fontSize=15;" parent="Xi1oOaFem3DwiqBoVBaP-88" vertex="1">
          <mxGeometry y="26" width="486" height="26" as="geometry" />
        </mxCell>
        <mxCell id="Xi1oOaFem3DwiqBoVBaP-90" value="nome_mao_de_obra" style="text;align=left;verticalAlign=top;spacingLeft=4;spacingRight=4;overflow=hidden;rotatable=0;points=[[0,0.5],[1,0.5]];portConstraint=eastwest;rounded=0;shadow=0;html=0;fontSize=15;" parent="Xi1oOaFem3DwiqBoVBaP-88" vertex="1">
          <mxGeometry y="52" width="486" height="26" as="geometry" />
        </mxCell>
        <mxCell id="Xi1oOaFem3DwiqBoVBaP-92" value="id_setor" style="text;align=left;verticalAlign=top;spacingLeft=4;spacingRight=4;overflow=hidden;rotatable=0;points=[[0,0.5],[1,0.5]];portConstraint=eastwest;rounded=0;shadow=0;html=0;fontSize=15;" parent="Xi1oOaFem3DwiqBoVBaP-88" vertex="1">
          <mxGeometry y="78" width="486" height="26" as="geometry" />
        </mxCell>
        <mxCell id="Xi1oOaFem3DwiqBoVBaP-99" value="id_ordem_de_servico" style="text;align=left;verticalAlign=top;spacingLeft=4;spacingRight=4;overflow=hidden;rotatable=0;points=[[0,0.5],[1,0.5]];portConstraint=eastwest;rounded=0;shadow=0;html=0;fontSize=15;" parent="Xi1oOaFem3DwiqBoVBaP-88" vertex="1">
          <mxGeometry y="104" width="486" height="26" as="geometry" />
        </mxCell>
        <mxCell id="Xi1oOaFem3DwiqBoVBaP-94" value="id_funcionario" style="text;align=left;verticalAlign=top;spacingLeft=4;spacingRight=4;overflow=hidden;rotatable=0;points=[[0,0.5],[1,0.5]];portConstraint=eastwest;rounded=0;shadow=0;html=0;fontSize=15;" parent="Xi1oOaFem3DwiqBoVBaP-88" vertex="1">
          <mxGeometry y="130" width="486" height="26" as="geometry" />
        </mxCell>
        <mxCell id="Xi1oOaFem3DwiqBoVBaP-101" value="PeÃ§as" style="swimlane;fontStyle=0;align=center;verticalAlign=top;childLayout=stackLayout;horizontal=1;startSize=26;horizontalStack=0;resizeParent=1;resizeLast=0;collapsible=1;marginBottom=0;rounded=0;shadow=0;strokeWidth=1;fontSize=15;" parent="WIyWlLk6GJQsqaUBKTNV-1" vertex="1">
          <mxGeometry x="-1590" y="570" width="486" height="340" as="geometry">
            <mxRectangle x="244" y="240" width="276" height="80" as="alternateBounds" />
          </mxGeometry>
        </mxCell>
        <mxCell id="Xi1oOaFem3DwiqBoVBaP-102" value="id_pecas" style="text;align=left;verticalAlign=top;spacingLeft=4;spacingRight=4;overflow=hidden;rotatable=0;points=[[0,0.5],[1,0.5]];portConstraint=eastwest;fontSize=15;" parent="Xi1oOaFem3DwiqBoVBaP-101" vertex="1">
          <mxGeometry y="26" width="486" height="26" as="geometry" />
        </mxCell>
        <mxCell id="Xi1oOaFem3DwiqBoVBaP-103" value="nome_pecas" style="text;align=left;verticalAlign=top;spacingLeft=4;spacingRight=4;overflow=hidden;rotatable=0;points=[[0,0.5],[1,0.5]];portConstraint=eastwest;rounded=0;shadow=0;html=0;fontSize=15;" parent="Xi1oOaFem3DwiqBoVBaP-101" vertex="1">
          <mxGeometry y="52" width="486" height="26" as="geometry" />
        </mxCell>
        <mxCell id="Xi1oOaFem3DwiqBoVBaP-104" value="modelo_pecas" style="text;align=left;verticalAlign=top;spacingLeft=4;spacingRight=4;overflow=hidden;rotatable=0;points=[[0,0.5],[1,0.5]];portConstraint=eastwest;rounded=0;shadow=0;html=0;fontSize=15;" parent="Xi1oOaFem3DwiqBoVBaP-101" vertex="1">
          <mxGeometry y="78" width="486" height="26" as="geometry" />
        </mxCell>
        <mxCell id="Xi1oOaFem3DwiqBoVBaP-105" value="qtd_em_estoque_pecas" style="text;align=left;verticalAlign=top;spacingLeft=4;spacingRight=4;overflow=hidden;rotatable=0;points=[[0,0.5],[1,0.5]];portConstraint=eastwest;rounded=0;shadow=0;html=0;fontSize=15;" parent="Xi1oOaFem3DwiqBoVBaP-101" vertex="1">
          <mxGeometry y="104" width="486" height="26" as="geometry" />
        </mxCell>
        <mxCell id="Xi1oOaFem3DwiqBoVBaP-106" value="qtd_min_estoque_pecas" style="text;align=left;verticalAlign=top;spacingLeft=4;spacingRight=4;overflow=hidden;rotatable=0;points=[[0,0.5],[1,0.5]];portConstraint=eastwest;rounded=0;shadow=0;html=0;fontSize=15;" parent="Xi1oOaFem3DwiqBoVBaP-101" vertex="1">
          <mxGeometry y="130" width="486" height="26" as="geometry" />
        </mxCell>
        <mxCell id="Xi1oOaFem3DwiqBoVBaP-108" value="preco_venda_pecas" style="text;align=left;verticalAlign=top;spacingLeft=4;spacingRight=4;overflow=hidden;rotatable=0;points=[[0,0.5],[1,0.5]];portConstraint=eastwest;rounded=0;shadow=0;html=0;fontSize=15;" parent="Xi1oOaFem3DwiqBoVBaP-101" vertex="1">
          <mxGeometry y="156" width="486" height="26" as="geometry" />
        </mxCell>
        <mxCell id="Xi1oOaFem3DwiqBoVBaP-109" value="preco_compra_pecas" style="text;align=left;verticalAlign=top;spacingLeft=4;spacingRight=4;overflow=hidden;rotatable=0;points=[[0,0.5],[1,0.5]];portConstraint=eastwest;rounded=0;shadow=0;html=0;fontSize=15;" parent="Xi1oOaFem3DwiqBoVBaP-101" vertex="1">
          <mxGeometry y="182" width="486" height="26" as="geometry" />
        </mxCell>
        <mxCell id="Xi1oOaFem3DwiqBoVBaP-110" value="pecas_tipo_unidade" style="text;align=left;verticalAlign=top;spacingLeft=4;spacingRight=4;overflow=hidden;rotatable=0;points=[[0,0.5],[1,0.5]];portConstraint=eastwest;rounded=0;shadow=0;html=0;fontSize=15;" parent="Xi1oOaFem3DwiqBoVBaP-101" vertex="1">
          <mxGeometry y="208" width="486" height="26" as="geometry" />
        </mxCell>
        <mxCell id="Xi1oOaFem3DwiqBoVBaP-112" value="id_ordem_de_servico" style="text;align=left;verticalAlign=top;spacingLeft=4;spacingRight=4;overflow=hidden;rotatable=0;points=[[0,0.5],[1,0.5]];portConstraint=eastwest;rounded=0;shadow=0;html=0;fontSize=15;" parent="Xi1oOaFem3DwiqBoVBaP-101" vertex="1">
          <mxGeometry y="234" width="486" height="26" as="geometry" />
        </mxCell>
        <mxCell id="Xi1oOaFem3DwiqBoVBaP-113" value="id_filial" style="text;align=left;verticalAlign=top;spacingLeft=4;spacingRight=4;overflow=hidden;rotatable=0;points=[[0,0.5],[1,0.5]];portConstraint=eastwest;rounded=0;shadow=0;html=0;fontSize=15;" parent="Xi1oOaFem3DwiqBoVBaP-101" vertex="1">
          <mxGeometry y="260" width="486" height="26" as="geometry" />
        </mxCell>
        <mxCell id="Xi1oOaFem3DwiqBoVBaP-111" value="id_marcas" style="text;align=left;verticalAlign=top;spacingLeft=4;spacingRight=4;overflow=hidden;rotatable=0;points=[[0,0.5],[1,0.5]];portConstraint=eastwest;rounded=0;shadow=0;html=0;fontSize=15;" parent="Xi1oOaFem3DwiqBoVBaP-101" vertex="1">
          <mxGeometry y="286" width="486" height="26" as="geometry" />
        </mxCell>
        <mxCell id="Xi1oOaFem3DwiqBoVBaP-114" value="id_condicao" style="text;align=left;verticalAlign=top;spacingLeft=4;spacingRight=4;overflow=hidden;rotatable=0;points=[[0,0.5],[1,0.5]];portConstraint=eastwest;rounded=0;shadow=0;html=0;fontSize=15;" parent="Xi1oOaFem3DwiqBoVBaP-101" vertex="1">
          <mxGeometry y="312" width="486" height="26" as="geometry" />
        </mxCell>
        <mxCell id="Xi1oOaFem3DwiqBoVBaP-118" value="CondiÃ§Ã£o (PeÃ§as, AcessÃ³rios e Microondas/Fornos a Venda)" style="swimlane;fontStyle=0;align=center;verticalAlign=top;childLayout=stackLayout;horizontal=1;startSize=26;horizontalStack=0;resizeParent=1;resizeLast=0;collapsible=1;marginBottom=0;rounded=0;shadow=0;strokeWidth=1;fontSize=15;" parent="WIyWlLk6GJQsqaUBKTNV-1" vertex="1">
          <mxGeometry x="-2310" y="610" width="486" height="182" as="geometry">
            <mxRectangle x="244" y="240" width="276" height="80" as="alternateBounds" />
          </mxGeometry>
        </mxCell>
        <mxCell id="Xi1oOaFem3DwiqBoVBaP-119" value="id_condicao" style="text;align=left;verticalAlign=top;spacingLeft=4;spacingRight=4;overflow=hidden;rotatable=0;points=[[0,0.5],[1,0.5]];portConstraint=eastwest;fontSize=15;" parent="Xi1oOaFem3DwiqBoVBaP-118" vertex="1">
          <mxGeometry y="26" width="486" height="26" as="geometry" />
        </mxCell>
        <mxCell id="Xi1oOaFem3DwiqBoVBaP-120" value="condicao" style="text;align=left;verticalAlign=top;spacingLeft=4;spacingRight=4;overflow=hidden;rotatable=0;points=[[0,0.5],[1,0.5]];portConstraint=eastwest;rounded=0;shadow=0;html=0;fontSize=15;" parent="Xi1oOaFem3DwiqBoVBaP-118" vertex="1">
          <mxGeometry y="52" width="486" height="26" as="geometry" />
        </mxCell>
        <mxCell id="Xi1oOaFem3DwiqBoVBaP-121" value="id_pecas" style="text;align=left;verticalAlign=top;spacingLeft=4;spacingRight=4;overflow=hidden;rotatable=0;points=[[0,0.5],[1,0.5]];portConstraint=eastwest;rounded=0;shadow=0;html=0;fontSize=15;" parent="Xi1oOaFem3DwiqBoVBaP-118" vertex="1">
          <mxGeometry y="78" width="486" height="26" as="geometry" />
        </mxCell>
        <mxCell id="Xi1oOaFem3DwiqBoVBaP-122" value="id_acessorios" style="text;align=left;verticalAlign=top;spacingLeft=4;spacingRight=4;overflow=hidden;rotatable=0;points=[[0,0.5],[1,0.5]];portConstraint=eastwest;rounded=0;shadow=0;html=0;fontSize=15;" parent="Xi1oOaFem3DwiqBoVBaP-118" vertex="1">
          <mxGeometry y="104" width="486" height="26" as="geometry" />
        </mxCell>
        <mxCell id="Xi1oOaFem3DwiqBoVBaP-123" value="id_microondas_venda" style="text;align=left;verticalAlign=top;spacingLeft=4;spacingRight=4;overflow=hidden;rotatable=0;points=[[0,0.5],[1,0.5]];portConstraint=eastwest;rounded=0;shadow=0;html=0;fontSize=15;" parent="Xi1oOaFem3DwiqBoVBaP-118" vertex="1">
          <mxGeometry y="130" width="486" height="26" as="geometry" />
        </mxCell>
        <mxCell id="Xi1oOaFem3DwiqBoVBaP-124" value="id_forno_eletrico_venda" style="text;align=left;verticalAlign=top;spacingLeft=4;spacingRight=4;overflow=hidden;rotatable=0;points=[[0,0.5],[1,0.5]];portConstraint=eastwest;rounded=0;shadow=0;html=0;fontSize=15;" parent="Xi1oOaFem3DwiqBoVBaP-118" vertex="1">
          <mxGeometry y="156" width="486" height="26" as="geometry" />
        </mxCell>
        <mxCell id="Xi1oOaFem3DwiqBoVBaP-125" value="SituaÃ§Ã£o da OS" style="swimlane;fontStyle=0;align=center;verticalAlign=top;childLayout=stackLayout;horizontal=1;startSize=26;horizontalStack=0;resizeParent=1;resizeLast=0;collapsible=1;marginBottom=0;rounded=0;shadow=0;strokeWidth=1;fontSize=15;" parent="WIyWlLk6GJQsqaUBKTNV-1" vertex="1">
          <mxGeometry x="940" y="1130" width="486" height="262" as="geometry">
            <mxRectangle x="244" y="240" width="276" height="80" as="alternateBounds" />
          </mxGeometry>
        </mxCell>
        <mxCell id="Xi1oOaFem3DwiqBoVBaP-126" value="id_situacao_os" style="text;align=left;verticalAlign=top;spacingLeft=4;spacingRight=4;overflow=hidden;rotatable=0;points=[[0,0.5],[1,0.5]];portConstraint=eastwest;fontSize=15;" parent="Xi1oOaFem3DwiqBoVBaP-125" vertex="1">
          <mxGeometry y="26" width="486" height="26" as="geometry" />
        </mxCell>
        <mxCell id="Xi1oOaFem3DwiqBoVBaP-127" value="situacao" style="text;align=left;verticalAlign=top;spacingLeft=4;spacingRight=4;overflow=hidden;rotatable=0;points=[[0,0.5],[1,0.5]];portConstraint=eastwest;rounded=0;shadow=0;html=0;fontSize=15;" parent="Xi1oOaFem3DwiqBoVBaP-125" vertex="1">
          <mxGeometry y="52" width="486" height="26" as="geometry" />
        </mxCell>
        <mxCell id="Xi1oOaFem3DwiqBoVBaP-131" value="data_de_exclusao" style="text;align=left;verticalAlign=top;spacingLeft=4;spacingRight=4;overflow=hidden;rotatable=0;points=[[0,0.5],[1,0.5]];portConstraint=eastwest;rounded=0;shadow=0;html=0;fontSize=15;" parent="Xi1oOaFem3DwiqBoVBaP-125" vertex="1">
          <mxGeometry y="78" width="486" height="26" as="geometry" />
        </mxCell>
        <mxCell id="Xi1oOaFem3DwiqBoVBaP-132" value="data_de_previsao" style="text;align=left;verticalAlign=top;spacingLeft=4;spacingRight=4;overflow=hidden;rotatable=0;points=[[0,0.5],[1,0.5]];portConstraint=eastwest;rounded=0;shadow=0;html=0;fontSize=15;" parent="Xi1oOaFem3DwiqBoVBaP-125" vertex="1">
          <mxGeometry y="104" width="486" height="26" as="geometry" />
        </mxCell>
        <mxCell id="Xi1oOaFem3DwiqBoVBaP-133" value="data_de_execucao" style="text;align=left;verticalAlign=top;spacingLeft=4;spacingRight=4;overflow=hidden;rotatable=0;points=[[0,0.5],[1,0.5]];portConstraint=eastwest;rounded=0;shadow=0;html=0;fontSize=15;" parent="Xi1oOaFem3DwiqBoVBaP-125" vertex="1">
          <mxGeometry y="130" width="486" height="26" as="geometry" />
        </mxCell>
        <mxCell id="8iY_nv9PEFW7YGY8rDwF-3" value="data_de_fechamento" style="text;align=left;verticalAlign=top;spacingLeft=4;spacingRight=4;overflow=hidden;rotatable=0;points=[[0,0.5],[1,0.5]];portConstraint=eastwest;rounded=0;shadow=0;html=0;fontSize=15;" vertex="1" parent="Xi1oOaFem3DwiqBoVBaP-125">
          <mxGeometry y="156" width="486" height="26" as="geometry" />
        </mxCell>
        <mxCell id="8iY_nv9PEFW7YGY8rDwF-4" value="obs_fechamento_os" style="text;align=left;verticalAlign=top;spacingLeft=4;spacingRight=4;overflow=hidden;rotatable=0;points=[[0,0.5],[1,0.5]];portConstraint=eastwest;rounded=0;shadow=0;html=0;fontSize=15;" vertex="1" parent="Xi1oOaFem3DwiqBoVBaP-125">
          <mxGeometry y="182" width="486" height="28" as="geometry" />
        </mxCell>
        <mxCell id="Xi1oOaFem3DwiqBoVBaP-130" value="id_ordem_de_servico" style="text;align=left;verticalAlign=top;spacingLeft=4;spacingRight=4;overflow=hidden;rotatable=0;points=[[0,0.5],[1,0.5]];portConstraint=eastwest;rounded=0;shadow=0;html=0;fontSize=15;" parent="Xi1oOaFem3DwiqBoVBaP-125" vertex="1">
          <mxGeometry y="210" width="486" height="26" as="geometry" />
        </mxCell>
        <mxCell id="Xi1oOaFem3DwiqBoVBaP-129" value="id_funcionario" style="text;align=left;verticalAlign=top;spacingLeft=4;spacingRight=4;overflow=hidden;rotatable=0;points=[[0,0.5],[1,0.5]];portConstraint=eastwest;rounded=0;shadow=0;html=0;fontSize=15;" parent="Xi1oOaFem3DwiqBoVBaP-125" vertex="1">
          <mxGeometry y="236" width="486" height="26" as="geometry" />
        </mxCell>
        <mxCell id="Xi1oOaFem3DwiqBoVBaP-143" value="Tipo de serviÃ§o" style="swimlane;fontStyle=0;align=center;verticalAlign=top;childLayout=stackLayout;horizontal=1;startSize=26;horizontalStack=0;resizeParent=1;resizeLast=0;collapsible=1;marginBottom=0;rounded=0;shadow=0;strokeWidth=1;fontSize=15;" parent="WIyWlLk6GJQsqaUBKTNV-1" vertex="1">
          <mxGeometry x="960" y="800" width="486" height="110" as="geometry">
            <mxRectangle x="244" y="240" width="276" height="80" as="alternateBounds" />
          </mxGeometry>
        </mxCell>
        <mxCell id="Xi1oOaFem3DwiqBoVBaP-144" value="id_tipo_de_servicoÂ " style="text;align=left;verticalAlign=top;spacingLeft=4;spacingRight=4;overflow=hidden;rotatable=0;points=[[0,0.5],[1,0.5]];portConstraint=eastwest;fontSize=15;" parent="Xi1oOaFem3DwiqBoVBaP-143" vertex="1">
          <mxGeometry y="26" width="486" height="26" as="geometry" />
        </mxCell>
        <mxCell id="Xi1oOaFem3DwiqBoVBaP-145" value="nome_do_tipo_de_servico" style="text;align=left;verticalAlign=top;spacingLeft=4;spacingRight=4;overflow=hidden;rotatable=0;points=[[0,0.5],[1,0.5]];portConstraint=eastwest;rounded=0;shadow=0;html=0;fontSize=15;" parent="Xi1oOaFem3DwiqBoVBaP-143" vertex="1">
          <mxGeometry y="52" width="486" height="26" as="geometry" />
        </mxCell>
        <mxCell id="Xi1oOaFem3DwiqBoVBaP-151" value="id_ordem_de_servico" style="text;align=left;verticalAlign=top;spacingLeft=4;spacingRight=4;overflow=hidden;rotatable=0;points=[[0,0.5],[1,0.5]];portConstraint=eastwest;rounded=0;shadow=0;html=0;fontSize=15;" parent="Xi1oOaFem3DwiqBoVBaP-143" vertex="1">
          <mxGeometry y="78" width="486" height="26" as="geometry" />
        </mxCell>
        <mxCell id="Xi1oOaFem3DwiqBoVBaP-155" value="" style="edgeStyle=orthogonalEdgeStyle;fontSize=12;html=1;endArrow=ERmandOne;startArrow=ERmandOne;rounded=0;entryX=0;entryY=0.5;entryDx=0;entryDy=0;exitX=1;exitY=0.5;exitDx=0;exitDy=0;" parent="WIyWlLk6GJQsqaUBKTNV-1" source="kcTmeoFG8CMYl5RWd2l8-112" target="kcTmeoFG8CMYl5RWd2l8-122" edge="1">
          <mxGeometry width="100" height="100" relative="1" as="geometry">
            <mxPoint x="-990" y="1790" as="sourcePoint" />
            <mxPoint x="-335" y="1190" as="targetPoint" />
            <Array as="points">
              <mxPoint x="-920" y="1809" />
              <mxPoint x="-920" y="1470" />
              <mxPoint x="-340" y="1470" />
              <mxPoint x="-340" y="1445" />
            </Array>
          </mxGeometry>
        </mxCell>
        <mxCell id="Xi1oOaFem3DwiqBoVBaP-159" value="" style="edgeStyle=orthogonalEdgeStyle;fontSize=12;html=1;endArrow=ERmandOne;startArrow=ERmandOne;rounded=0;exitX=1;exitY=0.5;exitDx=0;exitDy=0;entryX=0;entryY=0.5;entryDx=0;entryDy=0;" parent="WIyWlLk6GJQsqaUBKTNV-1" source="kcTmeoFG8CMYl5RWd2l8-113" target="kcTmeoFG8CMYl5RWd2l8-87" edge="1">
          <mxGeometry width="100" height="100" relative="1" as="geometry">
            <mxPoint x="-720" y="1570" as="sourcePoint" />
            <mxPoint x="-1020" y="1270" as="targetPoint" />
            <Array as="points">
              <mxPoint x="-980" y="1783" />
              <mxPoint x="-980" y="1441" />
            </Array>
          </mxGeometry>
        </mxCell>
        <mxCell id="Xi1oOaFem3DwiqBoVBaP-160" value="" style="edgeStyle=entityRelationEdgeStyle;fontSize=12;html=1;endArrow=ERmany;startArrow=ERmany;rounded=0;entryX=0;entryY=0.5;entryDx=0;entryDy=0;exitX=1;exitY=0.5;exitDx=0;exitDy=0;" parent="WIyWlLk6GJQsqaUBKTNV-1" source="kcTmeoFG8CMYl5RWd2l8-96" target="kcTmeoFG8CMYl5RWd2l8-135" edge="1">
          <mxGeometry width="100" height="100" relative="1" as="geometry">
            <mxPoint x="-530" y="1490" as="sourcePoint" />
            <mxPoint x="-360" y="1310" as="targetPoint" />
          </mxGeometry>
        </mxCell>
        <mxCell id="Xi1oOaFem3DwiqBoVBaP-161" value="" style="edgeStyle=orthogonalEdgeStyle;fontSize=12;html=1;endArrow=ERmandOne;startArrow=ERmandOne;rounded=0;entryX=0;entryY=0.5;entryDx=0;entryDy=0;exitX=1;exitY=0.5;exitDx=0;exitDy=0;" parent="WIyWlLk6GJQsqaUBKTNV-1" source="kcTmeoFG8CMYl5RWd2l8-114" target="kcTmeoFG8CMYl5RWd2l8-210" edge="1">
          <mxGeometry width="100" height="100" relative="1" as="geometry">
            <mxPoint x="-370" y="1680" as="sourcePoint" />
            <mxPoint x="-270" y="1580" as="targetPoint" />
            <Array as="points">
              <mxPoint x="-900" y="1835" />
              <mxPoint x="-900" y="1700" />
              <mxPoint x="360" y="1700" />
              <mxPoint x="360" y="1447" />
              <mxPoint x="370" y="1447" />
              <mxPoint x="370" y="1421" />
            </Array>
          </mxGeometry>
        </mxCell>
        <mxCell id="Xi1oOaFem3DwiqBoVBaP-164" value="" style="edgeStyle=orthogonalEdgeStyle;fontSize=12;html=1;endArrow=ERoneToMany;rounded=0;entryX=1;entryY=0.5;entryDx=0;entryDy=0;exitX=1;exitY=0.5;exitDx=0;exitDy=0;" parent="WIyWlLk6GJQsqaUBKTNV-1" source="Xi1oOaFem3DwiqBoVBaP-7" target="Xi1oOaFem3DwiqBoVBaP-18" edge="1">
          <mxGeometry width="100" height="100" relative="1" as="geometry">
            <mxPoint x="-20" y="1310" as="sourcePoint" />
            <mxPoint x="80" y="1210" as="targetPoint" />
            <Array as="points">
              <mxPoint x="176" y="1393" />
              <mxPoint x="176" y="1470" />
              <mxPoint x="-330" y="1470" />
              <mxPoint x="-330" y="1480" />
              <mxPoint x="-390" y="1480" />
              <mxPoint x="-390" y="1599" />
            </Array>
          </mxGeometry>
        </mxCell>
        <mxCell id="Xi1oOaFem3DwiqBoVBaP-166" value="" style="edgeStyle=orthogonalEdgeStyle;fontSize=12;html=1;endArrow=ERoneToMany;rounded=0;entryX=1;entryY=0.5;entryDx=0;entryDy=0;exitX=0;exitY=0.5;exitDx=0;exitDy=0;" parent="WIyWlLk6GJQsqaUBKTNV-1" source="kcTmeoFG8CMYl5RWd2l8-208" target="Xi1oOaFem3DwiqBoVBaP-19" edge="1">
          <mxGeometry width="100" height="100" relative="1" as="geometry">
            <mxPoint x="290" y="1410" as="sourcePoint" />
            <mxPoint x="30" y="1500" as="targetPoint" />
            <Array as="points">
              <mxPoint x="360" y="1395" />
              <mxPoint x="360" y="1419" />
              <mxPoint x="350" y="1419" />
              <mxPoint x="350" y="1690" />
              <mxPoint x="-380" y="1690" />
              <mxPoint x="-380" y="1677" />
            </Array>
          </mxGeometry>
        </mxCell>
        <mxCell id="Xi1oOaFem3DwiqBoVBaP-168" value="" style="edgeStyle=orthogonalEdgeStyle;fontSize=12;html=1;endArrow=ERoneToMany;rounded=0;entryX=0;entryY=0.5;entryDx=0;entryDy=0;exitX=1;exitY=0.5;exitDx=0;exitDy=0;" parent="WIyWlLk6GJQsqaUBKTNV-1" source="Xi1oOaFem3DwiqBoVBaP-167" target="Xi1oOaFem3DwiqBoVBaP-92" edge="1">
          <mxGeometry width="100" height="100" relative="1" as="geometry">
            <mxPoint x="-390" y="1570" as="sourcePoint" />
            <mxPoint x="-290" y="1470" as="targetPoint" />
            <Array as="points">
              <mxPoint x="-370" y="1651" />
              <mxPoint x="-370" y="1680" />
              <mxPoint x="-270" y="1680" />
              <mxPoint x="-270" y="1599" />
            </Array>
          </mxGeometry>
        </mxCell>
        <mxCell id="Xi1oOaFem3DwiqBoVBaP-170" value="" style="edgeStyle=orthogonalEdgeStyle;fontSize=12;html=1;endArrow=ERmany;startArrow=ERmany;rounded=0;entryX=0;entryY=0.5;entryDx=0;entryDy=0;exitX=1;exitY=0.5;exitDx=0;exitDy=0;" parent="WIyWlLk6GJQsqaUBKTNV-1" source="Xi1oOaFem3DwiqBoVBaP-94" target="Xi1oOaFem3DwiqBoVBaP-98" edge="1">
          <mxGeometry width="100" height="100" relative="1" as="geometry">
            <mxPoint x="290" y="1620" as="sourcePoint" />
            <mxPoint x="300" y="1400" as="targetPoint" />
            <Array as="points">
              <mxPoint x="254" y="1651" />
              <mxPoint x="254" y="1680" />
              <mxPoint x="334" y="1680" />
              <mxPoint x="334" y="1410" />
              <mxPoint x="350" y="1410" />
              <mxPoint x="350" y="1369" />
            </Array>
          </mxGeometry>
        </mxCell>
        <mxCell id="Xi1oOaFem3DwiqBoVBaP-171" value="" style="edgeStyle=entityRelationEdgeStyle;fontSize=12;html=1;endArrow=ERoneToMany;rounded=0;entryX=0;entryY=0.5;entryDx=0;entryDy=0;exitX=1;exitY=0.5;exitDx=0;exitDy=0;" parent="WIyWlLk6GJQsqaUBKTNV-1" source="kcTmeoFG8CMYl5RWd2l8-134" target="kcTmeoFG8CMYl5RWd2l8-209" edge="1">
          <mxGeometry width="100" height="100" relative="1" as="geometry">
            <mxPoint x="220" y="1367" as="sourcePoint" />
            <mxPoint x="320" y="1370" as="targetPoint" />
          </mxGeometry>
        </mxCell>
        <mxCell id="Xi1oOaFem3DwiqBoVBaP-172" value="" style="edgeStyle=entityRelationEdgeStyle;fontSize=12;html=1;endArrow=ERmandOne;startArrow=ERmandOne;rounded=0;entryX=1;entryY=0.5;entryDx=0;entryDy=0;exitX=1;exitY=0.5;exitDx=0;exitDy=0;" parent="WIyWlLk6GJQsqaUBKTNV-1" source="Xi1oOaFem3DwiqBoVBaP-86" target="Xi1oOaFem3DwiqBoVBaP-87" edge="1">
          <mxGeometry width="100" height="100" relative="1" as="geometry">
            <mxPoint x="750" y="1440" as="sourcePoint" />
            <mxPoint x="850" y="1340" as="targetPoint" />
          </mxGeometry>
        </mxCell>
        <mxCell id="Xi1oOaFem3DwiqBoVBaP-175" value="" style="edgeStyle=entityRelationEdgeStyle;fontSize=12;html=1;endArrow=ERmandOne;startArrow=ERmandOne;rounded=0;entryX=0;entryY=0.5;entryDx=0;entryDy=0;exitX=1;exitY=0.5;exitDx=0;exitDy=0;" parent="WIyWlLk6GJQsqaUBKTNV-1" source="Xi1oOaFem3DwiqBoVBaP-174" target="Xi1oOaFem3DwiqBoVBaP-129" edge="1">
          <mxGeometry width="100" height="100" relative="1" as="geometry">
            <mxPoint x="930" y="1520" as="sourcePoint" />
            <mxPoint x="1030" y="1420" as="targetPoint" />
          </mxGeometry>
        </mxCell>
        <mxCell id="Xi1oOaFem3DwiqBoVBaP-177" value="" style="edgeStyle=orthogonalEdgeStyle;fontSize=12;html=1;endArrow=ERmany;startArrow=ERmany;rounded=0;exitX=1;exitY=0.5;exitDx=0;exitDy=0;entryX=1;entryY=0.5;entryDx=0;entryDy=0;" parent="WIyWlLk6GJQsqaUBKTNV-1" source="Xi1oOaFem3DwiqBoVBaP-17" target="Xi1oOaFem3DwiqBoVBaP-22" edge="1">
          <mxGeometry width="100" height="100" relative="1" as="geometry">
            <mxPoint x="-170" y="1600" as="sourcePoint" />
            <mxPoint x="-330" y="800" as="targetPoint" />
            <Array as="points">
              <mxPoint x="-380" y="1625" />
              <mxPoint x="-380" y="1490" />
              <mxPoint x="320" y="1490" />
              <mxPoint x="320" y="715" />
            </Array>
          </mxGeometry>
        </mxCell>
        <mxCell id="Xi1oOaFem3DwiqBoVBaP-179" value="" style="edgeStyle=orthogonalEdgeStyle;fontSize=12;html=1;endArrow=ERmany;startArrow=ERmany;rounded=0;exitX=0;exitY=0.5;exitDx=0;exitDy=0;entryX=0;entryY=0.5;entryDx=0;entryDy=0;" parent="WIyWlLk6GJQsqaUBKTNV-1" source="kcTmeoFG8CMYl5RWd2l8-133" target="kcTmeoFG8CMYl5RWd2l8-26" edge="1">
          <mxGeometry width="100" height="100" relative="1" as="geometry">
            <mxPoint x="-300" y="1290" as="sourcePoint" />
            <mxPoint x="-410" y="770" as="targetPoint" />
            <Array as="points">
              <mxPoint x="-350" y="1185" />
              <mxPoint x="-350" y="689" />
            </Array>
          </mxGeometry>
        </mxCell>
        <mxCell id="Xi1oOaFem3DwiqBoVBaP-180" value="" style="edgeStyle=entityRelationEdgeStyle;fontSize=12;html=1;endArrow=ERmany;startArrow=ERmany;rounded=0;entryX=0;entryY=0.5;entryDx=0;entryDy=0;exitX=1;exitY=0.5;exitDx=0;exitDy=0;" parent="WIyWlLk6GJQsqaUBKTNV-1" source="Xi1oOaFem3DwiqBoVBaP-72" target="Xi1oOaFem3DwiqBoVBaP-78" edge="1">
          <mxGeometry width="100" height="100" relative="1" as="geometry">
            <mxPoint x="1310" y="1010" as="sourcePoint" />
            <mxPoint x="1410" y="910" as="targetPoint" />
          </mxGeometry>
        </mxCell>
        <mxCell id="Xi1oOaFem3DwiqBoVBaP-181" value="" style="edgeStyle=orthogonalEdgeStyle;fontSize=12;html=1;endArrow=ERoneToMany;rounded=0;exitX=1;exitY=0.5;exitDx=0;exitDy=0;entryX=0;entryY=0.5;entryDx=0;entryDy=0;" parent="WIyWlLk6GJQsqaUBKTNV-1" source="kcTmeoFG8CMYl5RWd2l8-34" target="Xi1oOaFem3DwiqBoVBaP-73" edge="1">
          <mxGeometry width="100" height="100" relative="1" as="geometry">
            <mxPoint x="380" y="700" as="sourcePoint" />
            <mxPoint x="490" y="800" as="targetPoint" />
            <Array as="points">
              <mxPoint x="910" y="611" />
              <mxPoint x="910" y="1057" />
            </Array>
          </mxGeometry>
        </mxCell>
        <mxCell id="Xi1oOaFem3DwiqBoVBaP-182" value="" style="edgeStyle=orthogonalEdgeStyle;fontSize=12;html=1;endArrow=ERmandOne;startArrow=ERmandOne;rounded=0;entryX=0;entryY=0.5;entryDx=0;entryDy=0;exitX=1;exitY=0.5;exitDx=0;exitDy=0;" parent="WIyWlLk6GJQsqaUBKTNV-1" source="kcTmeoFG8CMYl5RWd2l8-22" target="Xi1oOaFem3DwiqBoVBaP-130" edge="1">
          <mxGeometry width="100" height="100" relative="1" as="geometry">
            <mxPoint x="690" y="1060" as="sourcePoint" />
            <mxPoint x="790" y="960" as="targetPoint" />
            <Array as="points">
              <mxPoint x="890" y="637" />
              <mxPoint x="890" y="1299" />
              <mxPoint x="940" y="1299" />
            </Array>
          </mxGeometry>
        </mxCell>
        <mxCell id="Xi1oOaFem3DwiqBoVBaP-185" value="" style="edgeStyle=orthogonalEdgeStyle;fontSize=12;html=1;endArrow=ERoneToMany;rounded=0;exitX=0;exitY=0.5;exitDx=0;exitDy=0;entryX=1;entryY=0.5;entryDx=0;entryDy=0;" parent="WIyWlLk6GJQsqaUBKTNV-1" source="Xi1oOaFem3DwiqBoVBaP-151" target="kcTmeoFG8CMYl5RWd2l8-21" edge="1">
          <mxGeometry width="100" height="100" relative="1" as="geometry">
            <mxPoint x="910" y="860" as="sourcePoint" />
            <mxPoint x="960" y="620" as="targetPoint" />
            <Array as="points">
              <mxPoint x="930" y="891" />
              <mxPoint x="930" y="586" />
            </Array>
          </mxGeometry>
        </mxCell>
        <mxCell id="Xi1oOaFem3DwiqBoVBaP-187" value="" style="edgeStyle=orthogonalEdgeStyle;fontSize=12;html=1;endArrow=ERmany;startArrow=ERmany;rounded=0;entryX=0;entryY=0.5;entryDx=0;entryDy=0;exitX=1;exitY=0.5;exitDx=0;exitDy=0;" parent="WIyWlLk6GJQsqaUBKTNV-1" source="kcTmeoFG8CMYl5RWd2l8-29" target="kcTmeoFG8CMYl5RWd2l8-211" edge="1">
          <mxGeometry width="100" height="100" relative="1" as="geometry">
            <mxPoint x="270" y="1200" as="sourcePoint" />
            <mxPoint x="370" y="1100" as="targetPoint" />
            <Array as="points">
              <mxPoint x="340" y="663" />
              <mxPoint x="340" y="1265" />
            </Array>
          </mxGeometry>
        </mxCell>
        <mxCell id="Xi1oOaFem3DwiqBoVBaP-188" value="" style="edgeStyle=orthogonalEdgeStyle;fontSize=12;html=1;endArrow=ERmany;startArrow=ERmany;rounded=0;entryX=1;entryY=0.5;entryDx=0;entryDy=0;exitX=1;exitY=0.5;exitDx=0;exitDy=0;" parent="WIyWlLk6GJQsqaUBKTNV-1" source="kcTmeoFG8CMYl5RWd2l8-32" target="Xi1oOaFem3DwiqBoVBaP-99" edge="1">
          <mxGeometry width="100" height="100" relative="1" as="geometry">
            <mxPoint x="100" y="1460" as="sourcePoint" />
            <mxPoint x="200" y="1360" as="targetPoint" />
            <Array as="points">
              <mxPoint x="300" y="741" />
              <mxPoint x="300" y="1625" />
            </Array>
          </mxGeometry>
        </mxCell>
        <mxCell id="Xi1oOaFem3DwiqBoVBaP-189" value="" style="edgeStyle=orthogonalEdgeStyle;fontSize=12;html=1;endArrow=ERoneToMany;rounded=0;entryX=1;entryY=0.5;entryDx=0;entryDy=0;exitX=0;exitY=0.5;exitDx=0;exitDy=0;" parent="WIyWlLk6GJQsqaUBKTNV-1" source="kcTmeoFG8CMYl5RWd2l8-90" target="Xi1oOaFem3DwiqBoVBaP-41" edge="1">
          <mxGeometry width="100" height="100" relative="1" as="geometry">
            <mxPoint x="-1070" y="1230" as="sourcePoint" />
            <mxPoint x="-970" y="1130" as="targetPoint" />
            <Array as="points">
              <mxPoint x="-990" y="1363" />
              <mxPoint x="-990" y="1430" />
              <mxPoint x="-1680" y="1430" />
              <mxPoint x="-1680" y="1311" />
            </Array>
          </mxGeometry>
        </mxCell>
        <mxCell id="Xi1oOaFem3DwiqBoVBaP-190" value="" style="edgeStyle=entityRelationEdgeStyle;fontSize=12;html=1;endArrow=ERoneToMany;rounded=0;exitX=0;exitY=0.5;exitDx=0;exitDy=0;entryX=1;entryY=0.5;entryDx=0;entryDy=0;" parent="WIyWlLk6GJQsqaUBKTNV-1" source="kcTmeoFG8CMYl5RWd2l8-94" target="Xi1oOaFem3DwiqBoVBaP-51" edge="1">
          <mxGeometry width="100" height="100" relative="1" as="geometry">
            <mxPoint x="-1160" y="1340" as="sourcePoint" />
            <mxPoint x="-1060" y="1240" as="targetPoint" />
          </mxGeometry>
        </mxCell>
        <mxCell id="Xi1oOaFem3DwiqBoVBaP-191" value="" style="edgeStyle=orthogonalEdgeStyle;fontSize=12;html=1;endArrow=ERoneToMany;rounded=0;exitX=0;exitY=0.5;exitDx=0;exitDy=0;entryX=1;entryY=0.5;entryDx=0;entryDy=0;" parent="WIyWlLk6GJQsqaUBKTNV-1" source="kcTmeoFG8CMYl5RWd2l8-131" target="Xi1oOaFem3DwiqBoVBaP-53" edge="1">
          <mxGeometry width="100" height="100" relative="1" as="geometry">
            <mxPoint x="-1100" y="1340" as="sourcePoint" />
            <mxPoint x="-1050" y="940" as="targetPoint" />
            <Array as="points">
              <mxPoint x="-370" y="1341" />
              <mxPoint x="-370" y="1020" />
              <mxPoint x="-1070" y="1020" />
              <mxPoint x="-1070" y="1285" />
            </Array>
          </mxGeometry>
        </mxCell>
        <mxCell id="Xi1oOaFem3DwiqBoVBaP-192" value="" style="edgeStyle=orthogonalEdgeStyle;fontSize=12;html=1;endArrow=ERoneToMany;rounded=0;entryX=0;entryY=0.5;entryDx=0;entryDy=0;exitX=1;exitY=0.5;exitDx=0;exitDy=0;" parent="WIyWlLk6GJQsqaUBKTNV-1" source="kcTmeoFG8CMYl5RWd2l8-98" target="kcTmeoFG8CMYl5RWd2l8-20" edge="1">
          <mxGeometry width="100" height="100" relative="1" as="geometry">
            <mxPoint x="-800" y="1280" as="sourcePoint" />
            <mxPoint x="-417.27272727272725" y="670" as="targetPoint" />
            <Array as="points">
              <mxPoint x="-360" y="1389" />
              <mxPoint x="-360" y="561" />
            </Array>
          </mxGeometry>
        </mxCell>
        <mxCell id="Xi1oOaFem3DwiqBoVBaP-193" value="" style="edgeStyle=orthogonalEdgeStyle;fontSize=12;html=1;endArrow=ERmany;rounded=0;entryX=0;entryY=0.5;entryDx=0;entryDy=0;exitX=0;exitY=0.5;exitDx=0;exitDy=0;" parent="WIyWlLk6GJQsqaUBKTNV-1" source="kcTmeoFG8CMYl5RWd2l8-130" target="Xi1oOaFem3DwiqBoVBaP-100" edge="1">
          <mxGeometry width="100" height="100" relative="1" as="geometry">
            <mxPoint x="-1740" y="1250" as="sourcePoint" />
            <mxPoint x="-2290" y="1300" as="targetPoint" />
            <Array as="points">
              <mxPoint x="-390" y="1315" />
              <mxPoint x="-390" y="990" />
              <mxPoint x="-2220" y="990" />
              <mxPoint x="-2220" y="1285" />
            </Array>
          </mxGeometry>
        </mxCell>
        <mxCell id="Xi1oOaFem3DwiqBoVBaP-194" value="" style="edgeStyle=orthogonalEdgeStyle;fontSize=12;html=1;endArrow=ERmany;startArrow=ERmany;rounded=0;entryX=0;entryY=0.5;entryDx=0;entryDy=0;exitX=1;exitY=0.5;exitDx=0;exitDy=0;" parent="WIyWlLk6GJQsqaUBKTNV-1" source="kcTmeoFG8CMYl5RWd2l8-179" target="kcTmeoFG8CMYl5RWd2l8-30" edge="1">
          <mxGeometry width="100" height="100" relative="1" as="geometry">
            <mxPoint x="-690" y="490" as="sourcePoint" />
            <mxPoint x="-590" y="390" as="targetPoint" />
            <Array as="points">
              <mxPoint x="-350" y="353" />
              <mxPoint x="-350" y="405" />
            </Array>
          </mxGeometry>
        </mxCell>
        <mxCell id="Xi1oOaFem3DwiqBoVBaP-195" value="" style="edgeStyle=orthogonalEdgeStyle;fontSize=12;html=1;endArrow=ERoneToMany;rounded=0;entryX=0;entryY=0.5;entryDx=0;entryDy=0;exitX=1;exitY=0.5;exitDx=0;exitDy=0;" parent="WIyWlLk6GJQsqaUBKTNV-1" source="kcTmeoFG8CMYl5RWd2l8-162" target="kcTmeoFG8CMYl5RWd2l8-178" edge="1">
          <mxGeometry width="100" height="100" relative="1" as="geometry">
            <mxPoint x="-1480" y="420" as="sourcePoint" />
            <mxPoint x="-1370" y="120" as="targetPoint" />
            <Array as="points">
              <mxPoint x="-1800" y="301" />
              <mxPoint x="-1800" y="150" />
              <mxPoint x="-980" y="150" />
              <mxPoint x="-980" y="379" />
            </Array>
          </mxGeometry>
        </mxCell>
        <mxCell id="Xi1oOaFem3DwiqBoVBaP-198" value="" style="edgeStyle=orthogonalEdgeStyle;fontSize=12;html=1;endArrow=ERmany;startArrow=ERmany;rounded=0;entryX=0;entryY=0.5;entryDx=0;entryDy=0;exitX=1;exitY=0.5;exitDx=0;exitDy=0;" parent="WIyWlLk6GJQsqaUBKTNV-1" source="Xi1oOaFem3DwiqBoVBaP-197" target="kcTmeoFG8CMYl5RWd2l8-128" edge="1">
          <mxGeometry width="100" height="100" relative="1" as="geometry">
            <mxPoint x="-500" y="1190" as="sourcePoint" />
            <mxPoint x="-400" y="1090" as="targetPoint" />
            <Array as="points">
              <mxPoint x="-380" y="431" />
              <mxPoint x="-380" y="1289" />
            </Array>
          </mxGeometry>
        </mxCell>
        <mxCell id="Xi1oOaFem3DwiqBoVBaP-199" value="" style="edgeStyle=orthogonalEdgeStyle;fontSize=12;html=1;endArrow=ERoneToMany;rounded=0;entryX=0;entryY=0.5;entryDx=0;entryDy=0;exitX=1;exitY=0.5;exitDx=0;exitDy=0;" parent="WIyWlLk6GJQsqaUBKTNV-1" source="kcTmeoFG8CMYl5RWd2l8-166" target="kcTmeoFG8CMYl5RWd2l8-154" edge="1">
          <mxGeometry width="100" height="100" relative="1" as="geometry">
            <mxPoint x="-1390" y="500" as="sourcePoint" />
            <mxPoint x="-1290" y="400" as="targetPoint" />
            <Array as="points">
              <mxPoint x="-1790" y="327" />
              <mxPoint x="-1790" y="160" />
              <mxPoint x="-1610" y="160" />
              <mxPoint x="-1610" y="353" />
            </Array>
          </mxGeometry>
        </mxCell>
        <mxCell id="Xi1oOaFem3DwiqBoVBaP-200" value="" style="edgeStyle=orthogonalEdgeStyle;fontSize=12;html=1;endArrow=ERmany;startArrow=ERmany;rounded=0;entryX=0;entryY=0.5;entryDx=0;entryDy=0;exitX=1;exitY=0.5;exitDx=0;exitDy=0;" parent="WIyWlLk6GJQsqaUBKTNV-1" source="kcTmeoFG8CMYl5RWd2l8-156" target="kcTmeoFG8CMYl5RWd2l8-25" edge="1">
          <mxGeometry width="100" height="100" relative="1" as="geometry">
            <mxPoint x="-800" y="540" as="sourcePoint" />
            <mxPoint x="-700" y="440" as="targetPoint" />
            <Array as="points">
              <mxPoint x="-970" y="405" />
              <mxPoint x="-970" y="459" />
              <mxPoint x="-350" y="459" />
              <mxPoint x="-350" y="431" />
            </Array>
          </mxGeometry>
        </mxCell>
        <mxCell id="Xi1oOaFem3DwiqBoVBaP-201" value="" style="edgeStyle=orthogonalEdgeStyle;fontSize=12;html=1;endArrow=ERoneToMany;rounded=0;entryX=1;entryY=0.5;entryDx=0;entryDy=0;exitX=1;exitY=0.5;exitDx=0;exitDy=0;" parent="WIyWlLk6GJQsqaUBKTNV-1" source="kcTmeoFG8CMYl5RWd2l8-95" target="kcTmeoFG8CMYl5RWd2l8-157" edge="1">
          <mxGeometry width="100" height="100" relative="1" as="geometry">
            <mxPoint x="-800" y="540" as="sourcePoint" />
            <mxPoint x="-700" y="440" as="targetPoint" />
            <Array as="points">
              <mxPoint x="-400" y="1311" />
              <mxPoint x="-400" y="480" />
              <mxPoint x="-1070" y="480" />
              <mxPoint x="-1070" y="379" />
            </Array>
          </mxGeometry>
        </mxCell>
        <mxCell id="Xi1oOaFem3DwiqBoVBaP-202" value="" style="edgeStyle=orthogonalEdgeStyle;fontSize=12;html=1;endArrow=ERoneToMany;rounded=0;entryX=1;entryY=0.5;entryDx=0;entryDy=0;exitX=1;exitY=0.5;exitDx=0;exitDy=0;" parent="WIyWlLk6GJQsqaUBKTNV-1" source="kcTmeoFG8CMYl5RWd2l8-88" target="kcTmeoFG8CMYl5RWd2l8-180" edge="1">
          <mxGeometry width="100" height="100" relative="1" as="geometry">
            <mxPoint x="-800" y="610" as="sourcePoint" />
            <mxPoint x="-700" y="510" as="targetPoint" />
            <Array as="points">
              <mxPoint x="-370" y="1285" />
              <mxPoint x="-370" y="405" />
            </Array>
          </mxGeometry>
        </mxCell>
        <mxCell id="Xi1oOaFem3DwiqBoVBaP-203" value="" style="edgeStyle=orthogonalEdgeStyle;fontSize=12;html=1;endArrow=ERmany;startArrow=ERmany;rounded=0;entryX=0;entryY=0.5;entryDx=0;entryDy=0;exitX=1;exitY=0.5;exitDx=0;exitDy=0;" parent="WIyWlLk6GJQsqaUBKTNV-1" source="Xi1oOaFem3DwiqBoVBaP-112" target="kcTmeoFG8CMYl5RWd2l8-31" edge="1">
          <mxGeometry width="100" height="100" relative="1" as="geometry">
            <mxPoint x="-1060" y="840" as="sourcePoint" />
            <mxPoint x="-730" y="540" as="targetPoint" />
            <Array as="points">
              <mxPoint x="-1080" y="817" />
              <mxPoint x="-1080" y="490" />
              <mxPoint x="-340" y="490" />
              <mxPoint x="-340" y="535" />
            </Array>
          </mxGeometry>
        </mxCell>
        <mxCell id="Xi1oOaFem3DwiqBoVBaP-204" value="" style="edgeStyle=orthogonalEdgeStyle;fontSize=12;html=1;endArrow=ERmany;startArrow=ERmany;rounded=0;entryX=0;entryY=0.5;entryDx=0;entryDy=0;exitX=1;exitY=0.5;exitDx=0;exitDy=0;" parent="WIyWlLk6GJQsqaUBKTNV-1" source="kcTmeoFG8CMYl5RWd2l8-52" target="kcTmeoFG8CMYl5RWd2l8-28" edge="1">
          <mxGeometry width="100" height="100" relative="1" as="geometry">
            <mxPoint x="-830" y="640" as="sourcePoint" />
            <mxPoint x="-730" y="540" as="targetPoint" />
            <Array as="points">
              <mxPoint x="-420" y="817" />
              <mxPoint x="-420" y="510" />
              <mxPoint x="-360" y="510" />
              <mxPoint x="-360" y="457" />
            </Array>
          </mxGeometry>
        </mxCell>
        <mxCell id="Xi1oOaFem3DwiqBoVBaP-206" value="" style="edgeStyle=orthogonalEdgeStyle;fontSize=12;html=1;endArrow=ERmany;startArrow=ERmany;rounded=0;entryX=1;entryY=0.5;entryDx=0;entryDy=0;exitX=0;exitY=0.5;exitDx=0;exitDy=0;" parent="WIyWlLk6GJQsqaUBKTNV-1" source="kcTmeoFG8CMYl5RWd2l8-132" target="Xi1oOaFem3DwiqBoVBaP-113" edge="1">
          <mxGeometry width="100" height="100" relative="1" as="geometry">
            <mxPoint x="-830" y="950" as="sourcePoint" />
            <mxPoint x="-730" y="850" as="targetPoint" />
            <Array as="points">
              <mxPoint x="-410" y="1211" />
              <mxPoint x="-410" y="920" />
              <mxPoint x="-980" y="920" />
              <mxPoint x="-980" y="900" />
              <mxPoint x="-990" y="900" />
              <mxPoint x="-990" y="843" />
            </Array>
          </mxGeometry>
        </mxCell>
        <mxCell id="Xi1oOaFem3DwiqBoVBaP-208" value="" style="edgeStyle=orthogonalEdgeStyle;fontSize=12;html=1;endArrow=ERmany;startArrow=ERmany;rounded=0;entryX=0;entryY=0.5;entryDx=0;entryDy=0;exitX=0;exitY=0.5;exitDx=0;exitDy=0;" parent="WIyWlLk6GJQsqaUBKTNV-1" source="kcTmeoFG8CMYl5RWd2l8-129" target="Xi1oOaFem3DwiqBoVBaP-207" edge="1">
          <mxGeometry width="100" height="100" relative="1" as="geometry">
            <mxPoint x="-830" y="710" as="sourcePoint" />
            <mxPoint x="-730" y="610" as="targetPoint" />
            <Array as="points">
              <mxPoint x="-340" y="1263" />
              <mxPoint x="-340" y="980" />
              <mxPoint x="-1640" y="980" />
              <mxPoint x="-1640" y="431" />
            </Array>
          </mxGeometry>
        </mxCell>
        <mxCell id="Xi1oOaFem3DwiqBoVBaP-209" value="" style="edgeStyle=orthogonalEdgeStyle;fontSize=12;html=1;endArrow=ERmany;startArrow=ERmany;rounded=0;entryX=0;entryY=0.5;entryDx=0;entryDy=0;exitX=1;exitY=0.5;exitDx=0;exitDy=0;" parent="WIyWlLk6GJQsqaUBKTNV-1" source="kcTmeoFG8CMYl5RWd2l8-53" target="kcTmeoFG8CMYl5RWd2l8-136" edge="1">
          <mxGeometry width="100" height="100" relative="1" as="geometry">
            <mxPoint x="-660" y="1280" as="sourcePoint" />
            <mxPoint x="-560" y="1180" as="targetPoint" />
            <Array as="points">
              <mxPoint x="-420" y="895" />
              <mxPoint x="-420" y="1237" />
            </Array>
          </mxGeometry>
        </mxCell>
        <mxCell id="Xi1oOaFem3DwiqBoVBaP-211" value="" style="edgeStyle=orthogonalEdgeStyle;fontSize=12;html=1;endArrow=ERoneToMany;rounded=0;entryX=1;entryY=0.5;entryDx=0;entryDy=0;exitX=0;exitY=0.5;exitDx=0;exitDy=0;" parent="WIyWlLk6GJQsqaUBKTNV-1" source="Xi1oOaFem3DwiqBoVBaP-24" target="Xi1oOaFem3DwiqBoVBaP-40" edge="1">
          <mxGeometry width="100" height="100" relative="1" as="geometry">
            <mxPoint x="-1430" y="1140" as="sourcePoint" />
            <mxPoint x="-1670" y="1240" as="targetPoint" />
            <Array as="points">
              <mxPoint x="-350" y="483" />
              <mxPoint x="-350" y="511" />
              <mxPoint x="-440" y="511" />
              <mxPoint x="-440" y="1000" />
              <mxPoint x="-1690" y="1000" />
              <mxPoint x="-1690" y="1207" />
            </Array>
          </mxGeometry>
        </mxCell>
        <mxCell id="Xi1oOaFem3DwiqBoVBaP-212" value="" style="edgeStyle=orthogonalEdgeStyle;fontSize=12;html=1;endArrow=ERoneToMany;rounded=0;entryX=1;entryY=0.5;entryDx=0;entryDy=0;exitX=0;exitY=0.5;exitDx=0;exitDy=0;" parent="WIyWlLk6GJQsqaUBKTNV-1" source="Xi1oOaFem3DwiqBoVBaP-25" target="Xi1oOaFem3DwiqBoVBaP-80" edge="1">
          <mxGeometry width="100" height="100" relative="1" as="geometry">
            <mxPoint x="-1290" y="1180" as="sourcePoint" />
            <mxPoint x="-1050" y="1100" as="targetPoint" />
            <Array as="points">
              <mxPoint x="-320" y="537" />
              <mxPoint x="-450" y="537" />
              <mxPoint x="-450" y="930" />
              <mxPoint x="-1090" y="930" />
              <mxPoint x="-1090" y="1207" />
            </Array>
          </mxGeometry>
        </mxCell>
        <mxCell id="Xi1oOaFem3DwiqBoVBaP-213" value="" style="edgeStyle=orthogonalEdgeStyle;fontSize=12;html=1;endArrow=ERoneToMany;rounded=0;entryX=0;entryY=0.5;entryDx=0;entryDy=0;exitX=1;exitY=0.5;exitDx=0;exitDy=0;" parent="WIyWlLk6GJQsqaUBKTNV-1" source="Xi1oOaFem3DwiqBoVBaP-121" target="Xi1oOaFem3DwiqBoVBaP-114" edge="1">
          <mxGeometry width="100" height="100" relative="1" as="geometry">
            <mxPoint x="-1630" y="720" as="sourcePoint" />
            <mxPoint x="-1530" y="620" as="targetPoint" />
            <Array as="points">
              <mxPoint x="-1650" y="701" />
              <mxPoint x="-1650" y="895" />
            </Array>
          </mxGeometry>
        </mxCell>
        <mxCell id="Xi1oOaFem3DwiqBoVBaP-214" value="" style="edgeStyle=orthogonalEdgeStyle;fontSize=12;html=1;endArrow=ERoneToMany;rounded=0;entryX=0;entryY=0.5;entryDx=0;entryDy=0;exitX=1;exitY=0.5;exitDx=0;exitDy=0;" parent="WIyWlLk6GJQsqaUBKTNV-1" source="Xi1oOaFem3DwiqBoVBaP-122" target="Xi1oOaFem3DwiqBoVBaP-115" edge="1">
          <mxGeometry width="100" height="100" relative="1" as="geometry">
            <mxPoint x="-1630" y="720" as="sourcePoint" />
            <mxPoint x="-1520" y="510" as="targetPoint" />
            <Array as="points">
              <mxPoint x="-1660" y="727" />
              <mxPoint x="-1660" y="920" />
              <mxPoint x="-1090" y="920" />
              <mxPoint x="-1090" y="869" />
            </Array>
          </mxGeometry>
        </mxCell>
        <mxCell id="Xi1oOaFem3DwiqBoVBaP-215" value="" style="edgeStyle=orthogonalEdgeStyle;fontSize=12;html=1;endArrow=ERmany;startArrow=ERmany;rounded=0;entryX=1;entryY=0.5;entryDx=0;entryDy=0;exitX=0;exitY=0.5;exitDx=0;exitDy=0;" parent="WIyWlLk6GJQsqaUBKTNV-1" source="kcTmeoFG8CMYl5RWd2l8-50" target="kcTmeoFG8CMYl5RWd2l8-169" edge="1">
          <mxGeometry width="100" height="100" relative="1" as="geometry">
            <mxPoint x="-1630" y="620" as="sourcePoint" />
            <mxPoint x="-1530" y="520" as="targetPoint" />
            <Array as="points">
              <mxPoint x="-970" y="843" />
              <mxPoint x="-970" y="500" />
              <mxPoint x="-1090" y="500" />
              <mxPoint x="-1090" y="460" />
              <mxPoint x="-1650" y="460" />
              <mxPoint x="-1650" y="353" />
            </Array>
          </mxGeometry>
        </mxCell>
        <mxCell id="Xi1oOaFem3DwiqBoVBaP-217" value="" style="edgeStyle=orthogonalEdgeStyle;fontSize=12;html=1;endArrow=ERmany;startArrow=ERmany;rounded=0;entryX=1;entryY=0.5;entryDx=0;entryDy=0;exitX=0;exitY=0.5;exitDx=0;exitDy=0;" parent="WIyWlLk6GJQsqaUBKTNV-1" source="Xi1oOaFem3DwiqBoVBaP-111" target="kcTmeoFG8CMYl5RWd2l8-170" edge="1">
          <mxGeometry width="100" height="100" relative="1" as="geometry">
            <mxPoint x="-1460" y="550" as="sourcePoint" />
            <mxPoint x="-1360" y="450" as="targetPoint" />
            <Array as="points">
              <mxPoint x="-1670" y="869" />
              <mxPoint x="-1670" y="379" />
            </Array>
          </mxGeometry>
        </mxCell>
        <mxCell id="Xi1oOaFem3DwiqBoVBaP-218" value="" style="edgeStyle=orthogonalEdgeStyle;fontSize=12;html=1;endArrow=ERoneToMany;rounded=0;entryX=0;entryY=0.5;entryDx=0;entryDy=0;exitX=0;exitY=0.5;exitDx=0;exitDy=0;" parent="WIyWlLk6GJQsqaUBKTNV-1" source="Xi1oOaFem3DwiqBoVBaP-123" target="Xi1oOaFem3DwiqBoVBaP-117" edge="1">
          <mxGeometry width="100" height="100" relative="1" as="geometry">
            <mxPoint x="-1990" y="1060" as="sourcePoint" />
            <mxPoint x="-1890" y="960" as="targetPoint" />
            <Array as="points">
              <mxPoint x="-2340" y="753" />
              <mxPoint x="-2340" y="1259" />
            </Array>
          </mxGeometry>
        </mxCell>
        <mxCell id="Xi1oOaFem3DwiqBoVBaP-219" value="" style="edgeStyle=orthogonalEdgeStyle;fontSize=12;html=1;endArrow=ERoneToMany;rounded=0;entryX=0;entryY=0.5;entryDx=0;entryDy=0;exitX=0;exitY=0.5;exitDx=0;exitDy=0;" parent="WIyWlLk6GJQsqaUBKTNV-1" source="Xi1oOaFem3DwiqBoVBaP-116" target="Xi1oOaFem3DwiqBoVBaP-124" edge="1">
          <mxGeometry width="100" height="100" relative="1" as="geometry">
            <mxPoint x="-1990" y="1060" as="sourcePoint" />
            <mxPoint x="-1890" y="960" as="targetPoint" />
            <Array as="points">
              <mxPoint x="-1650" y="1285" />
              <mxPoint x="-1650" y="980" />
              <mxPoint x="-2320" y="980" />
              <mxPoint x="-2320" y="779" />
            </Array>
          </mxGeometry>
        </mxCell>
        <mxCell id="Xi1oOaFem3DwiqBoVBaP-220" value="" style="edgeStyle=orthogonalEdgeStyle;fontSize=12;html=1;endArrow=ERmandOne;startArrow=ERmandOne;rounded=0;entryX=0;entryY=0.5;entryDx=0;entryDy=0;exitX=1;exitY=0.5;exitDx=0;exitDy=0;" parent="WIyWlLk6GJQsqaUBKTNV-1" source="kcTmeoFG8CMYl5RWd2l8-168" target="Xi1oOaFem3DwiqBoVBaP-52" edge="1">
          <mxGeometry width="100" height="100" relative="1" as="geometry">
            <mxPoint x="-1880" y="1110" as="sourcePoint" />
            <mxPoint x="-1780" y="1010" as="targetPoint" />
            <Array as="points">
              <mxPoint x="-1680" y="431" />
              <mxPoint x="-1680" y="1259" />
            </Array>
          </mxGeometry>
        </mxCell>
        <mxCell id="Xi1oOaFem3DwiqBoVBaP-222" value="" style="edgeStyle=orthogonalEdgeStyle;fontSize=12;html=1;endArrow=ERmandOne;startArrow=ERmandOne;rounded=0;entryX=0;entryY=0.5;entryDx=0;entryDy=0;exitX=0;exitY=0.5;exitDx=0;exitDy=0;" parent="WIyWlLk6GJQsqaUBKTNV-1" source="Xi1oOaFem3DwiqBoVBaP-39" target="kcTmeoFG8CMYl5RWd2l8-167" edge="1">
          <mxGeometry width="100" height="100" relative="1" as="geometry">
            <mxPoint x="-2300" y="710" as="sourcePoint" />
            <mxPoint x="-2200" y="610" as="targetPoint" />
            <Array as="points">
              <mxPoint x="-2360" y="1233" />
              <mxPoint x="-2360" y="405" />
            </Array>
          </mxGeometry>
        </mxCell>
      </root>
    </mxGraphModel>
  </diagram>
</mxfile>
